<?xml version="1.0" encoding="UTF-8" standalone="no"?>
<!DOCTYPE svg PUBLIC "-//W3C//DTD SVG 1.1//EN" "http://www.w3.org/Graphics/SVG/1.1/DTD/svg11.dtd">
<!-- Generated by Microsoft Visio, SVG Export psi.svg Page-1 -->
<svg xmlns="http://www.w3.org/2000/svg" xmlns:xlink="http://www.w3.org/1999/xlink" xmlns:ev="http://www.w3.org/2001/xml-events"
		xmlns:v="http://schemas.microsoft.com/visio/2003/SVGExtensions/" width="5.80781in" height="3.81757in"
		viewBox="0 0 418.162 274.865" xml:space="preserve" color-interpolation-filters="sRGB" class="st20">
	<v:documentProperties v:langID="1033" v:viewMarkup="false">
		<v:userDefs>
			<v:ud v:nameU="msvSubprocessMaster" v:prompt="" v:val="VT4(Rectangle)"/>
			<v:ud v:nameU="msvNoAutoConnect" v:val="VT0(1):26"/>
		</v:userDefs>
	</v:documentProperties>

	<style type="text/css">
	<![CDATA[
		.st1 {fill:#ffffff;stroke:#ffffff;stroke-width:0.25}
		.st2 {fill:none;stroke:none;stroke-width:0.25}
		.st3 {fill:#000000;font-family:Times New Roman;font-size:0.666664em}
		.st4 {font-size:1em}
		.st5 {stroke:#bfbfbf;stroke-dasharray:7,5;stroke-linecap:round;stroke-linejoin:round;stroke-width:1}
		.st6 {fill:none;stroke:#000000;stroke-width:1}
		.st7 {fill:#ffffff;stroke:none;stroke-width:0.25}
		.st8 {fill:#feffff;font-family:Times New Roman;font-size:0.833336em}
		.st9 {fill:#ffffff;stroke:#000000;stroke-width:1}
		.st10 {stroke:#000000;stroke-linecap:round;stroke-linejoin:round;stroke-width:1}
		.st11 {marker-end:url(#mrkr5-38);marker-start:url(#mrkr5-36);stroke:#000000;stroke-linecap:round;stroke-linejoin:round;stroke-width:1}
		.st12 {fill:#000000;fill-opacity:1;stroke:#000000;stroke-opacity:1;stroke-width:0.28409090909091}
		.st13 {fill:#000000;font-family:Calibri;font-size:0.75em}
		.st14 {fill:none;stroke:#4672c4;stroke-width:1.5}
		.st15 {marker-end:url(#mrkr5-38);stroke:#000000;stroke-linecap:round;stroke-linejoin:round;stroke-width:1}
		.st16 {marker-start:url(#mrkr5-36);stroke:#000000;stroke-linecap:round;stroke-linejoin:round;stroke-width:1}
		.st17 {fill:#000000}
		.st18 {stroke:#000000;stroke-linecap:butt;stroke-width:0.75}
		.st19 {fill:#4672c4;font-family:Calibri;font-size:1.00001em;font-weight:bold}
		.st20 {fill:none;fill-rule:evenodd;font-size:12px;overflow:visible;stroke-linecap:square;stroke-miterlimit:3}
	]]>
	</style>

	<defs id="Markers">
		<g id="lend5">
			<path d="M 2 1 L 0 0 L 1.98117 -0.993387 C 1.67173 -0.364515 1.67301 0.372641 1.98465 1.00043 " style="stroke:none"/>
		</g>
		<marker id="mrkr5-36" class="st12" v:arrowType="5" v:arrowSize="2" v:setback="5.8" refX="5.8" orient="auto"
				markerUnits="strokeWidth" overflow="visible">
			<use xlink:href="#lend5" transform="scale(3.52) "/>
		</marker>
		<marker id="mrkr5-38" class="st12" v:arrowType="5" v:arrowSize="2" v:setback="6.16" refX="-6.16" orient="auto"
				markerUnits="strokeWidth" overflow="visible">
			<use xlink:href="#lend5" transform="scale(-3.52,-3.52) "/>
		</marker>
	</defs>
	<g v:mID="0" v:index="1" v:groupContext="foregroundPage">
		<v:userDefs>
			<v:ud v:nameU="msvThemeOrder" v:val="VT0(0):26"/>
		</v:userDefs>
		<title>Page-1</title>
		<v:pageProperties v:drawingScale="1" v:pageScale="1" v:drawingUnits="0" v:shadowOffsetX="4.25197"
				v:shadowOffsetY="-4.25197"/>
		<v:layer v:name="Electrical" v:index="0"/>
		<g id="shape60-1" v:mID="60" v:groupContext="shape" transform="translate(18,-18)">
			<title>Rectangle.6</title>
			<v:userDefs>
				<v:ud v:nameU="visVersion" v:val="VT0(15):26"/>
				<v:ud v:nameU="visMasterStencil" v:prompt="" v:val="VT4(Basic_U.vssx)"/>
			</v:userDefs>
			<rect x="0" y="36" width="382.162" height="238.865" class="st1"/>
		</g>
		<g id="shape1-3" v:mID="1" v:groupContext="shape" transform="translate(36.2625,-225.365)">
			<title>Sheet.1</title>
			<desc>Client A</desc>
			<v:textBlock v:margins="rect(2,2,2,2)"/>
			<v:textRect cx="27.9176" cy="268.865" width="55.84" height="12"/>
			<rect x="0" y="262.865" width="55.8352" height="12" class="st2"/>
			<text x="14.25" y="271.26" class="st3" v:langID="2052"><v:paragraph v:horizAlign="1"/><v:tabList/>Client<tspan
						class="st4" v:langID="1033"> </tspan>A</text>		</g>
		<g id="shape2-7" v:mID="2" v:groupContext="shape" transform="translate(492.928,36.437) rotate(90)">
			<title>Sheet.2</title>
			<path d="M0 274.87 L109.42 274.87" class="st5"/>
		</g>
		<g id="shape3-10" v:mID="3" v:groupContext="shape" transform="translate(18.5,-129.011)">
			<title>Sheet.3</title>
			<path d="M0 274.87 L380.02 274.87" class="st5"/>
		</g>
		<g id="group4-13" transform="translate(182.183,-53.8572)" v:mID="4" v:groupContext="group">
			<title>Sheet.4</title>
			<g id="shape5-14" v:mID="5" v:groupContext="shape">
				<title>Ellipse.1115</title>
				<v:userDefs>
					<v:ud v:nameU="visVersion" v:val="VT0(15):26"/>
				</v:userDefs>
				<path d="M0 267.45 A31.8898 7.41125 0 1 1 63.78 267.45 A31.8898 7.41125 0 0 1 0 267.45 Z" class="st6"/>
			</g>
			<g id="shape6-16" v:mID="6" v:groupContext="shape" transform="translate(0,-7.41125)">
				<title>Rectangle.1116</title>
				<desc>a</desc>
				<v:userDefs>
					<v:ud v:nameU="visVersion" v:val="VT0(15):26"/>
				</v:userDefs>
				<v:textBlock v:margins="rect(4,4,4,4)"/>
				<v:textRect cx="31.8898" cy="265.047" width="63.78" height="19.6367"/>
				<rect x="0" y="255.228" width="63.7795" height="19.6367" class="st7"/>
				<text x="29.67" y="268.05" class="st8" v:langID="2052"><v:paragraph v:horizAlign="1"/><v:tabList/>a</text>			</g>
			<g id="shape7-19" v:mID="7" v:groupContext="shape" transform="translate(0,-19.1932)">
				<title>Ellipse.1114</title>
				<v:userDefs>
					<v:ud v:nameU="visVersion" v:val="VT0(15):26"/>
				</v:userDefs>
				<path d="M0 267.45 A31.8898 7.41125 0 1 1 63.78 267.45 A31.8898 7.41125 0 0 1 0 267.45 Z" class="st9"/>
			</g>
			<g id="shape8-21" v:mID="8" v:groupContext="shape" transform="translate(274.865,248.261) rotate(90)">
				<title>Sheet.8</title>
				<path d="M0 274.87 L19.19 274.87" class="st10"/>
			</g>
			<g id="shape9-24" v:mID="9" v:groupContext="shape" transform="translate(338.645,248.261) rotate(90)">
				<title>Sheet.9</title>
				<path d="M0 274.87 L19.19 274.87" class="st10"/>
			</g>
		</g>
		<g id="shape10-27" v:mID="10" v:groupContext="shape" transform="translate(187.093,-58.8651)">
			<title>Sheet.10</title>
			<desc>Server</desc>
			<v:textBlock v:margins="rect(2,2,2,2)"/>
			<v:textRect cx="27.9176" cy="268.865" width="55.84" height="12"/>
			<rect x="0" y="262.865" width="55.8352" height="12" class="st2"/>
			<text x="17.48" y="271.26" class="st3" v:langID="2052"><v:paragraph v:horizAlign="1"/><v:tabList/>Server</text>		</g>
		<g id="shape11-30" v:mID="11" v:groupContext="shape" transform="translate(483.942,138.912) rotate(90.3084)">
			<title>Sheet.11</title>
			<path d="M5.8 274.87 L6.16 274.87 L18.22 274.87" class="st11"/>
		</g>
		<g id="shape12-39" v:mID="12" v:groupContext="shape" transform="translate(484.871,295.24) rotate(135)">
			<title>Sheet.12</title>
			<path d="M5.8 274.87 L6.16 274.87 L79.8 274.87" class="st11"/>
		</g>
		<g id="shape13-46" v:mID="13" v:groupContext="shape" transform="translate(349.589,-84.2169) rotate(45)">
			<title>Sheet.13</title>
			<desc>1. RA-TLS</desc>
			<v:textBlock v:margins="rect(4,4,4,4)"/>
			<v:textRect cx="24.4062" cy="264.865" width="48.82" height="20"/>
			<rect x="0" y="254.865" width="48.8125" height="20" class="st2"/>
			<text x="7.4" y="267.57" class="st13" v:langID="2052"><v:paragraph v:horizAlign="1"/><v:tabList/>1. RA-TLS</text>		</g>
		<g id="shape14-49" v:mID="14" v:groupContext="shape" transform="translate(52.2168,-47.0301) rotate(-45)">
			<title>Sheet.14</title>
			<desc>1. RA-TLS</desc>
			<v:textBlock v:margins="rect(4,4,4,4)"/>
			<v:textRect cx="24.4063" cy="264.865" width="48.82" height="20"/>
			<rect x="0" y="254.865" width="48.8125" height="20" class="st2"/>
			<text x="7.4" y="267.57" class="st13" v:langID="2052"><v:paragraph v:horizAlign="1"/><v:tabList/>1. RA-TLS</text>		</g>
		<g id="shape15-52" v:mID="15" v:groupContext="shape" transform="translate(36.2625,-173.984)">
			<title>Sheet.15</title>
			<rect x="0" y="193.484" width="126" height="81.3809" class="st14"/>
		</g>
		<g id="shape16-54" v:mID="16" v:groupContext="shape" transform="translate(154.537,-19.5)">
			<title>Sheet.16</title>
			<rect x="0" y="193.484" width="145.125" height="81.3809" class="st14"/>
		</g>
		<g id="shape17-56" v:mID="17" v:groupContext="shape" transform="translate(311.621,-89.359) rotate(45)">
			<title>Sheet.17</title>
			<path d="M0 274.87 L82.3 274.87" class="st15"/>
		</g>
		<g id="shape18-61" v:mID="18" v:groupContext="shape" transform="translate(532.121,299.359) rotate(135)">
			<title>Sheet.18</title>
			<path d="M0 274.87 L81.45 274.87" class="st15"/>
		</g>
		<g id="shape19-66" v:mID="19" v:groupContext="shape" transform="translate(309.221,-87.0274) rotate(45)">
			<title>Sheet.19</title>
			<desc>2. upload dataset</desc>
			<v:textBlock v:margins="rect(4,4,4,4)"/>
			<v:textRect cx="40.9898" cy="264.865" width="81.98" height="20"/>
			<rect x="0" y="254.865" width="81.9797" height="20" class="st2"/>
			<text x="9.2" y="267.57" class="st13" v:langID="2052"><v:paragraph v:horizAlign="1"/><v:tabList/>2. upload dataset</text>		</g>
		<g id="shape20-69" v:mID="20" v:groupContext="shape" transform="translate(85.5456,-30.7485) rotate(-45)">
			<title>Sheet.20</title>
			<desc>2. upload dataset</desc>
			<v:textBlock v:margins="rect(4,4,4,4)"/>
			<v:textRect cx="40.9898" cy="264.865" width="81.98" height="20"/>
			<rect x="0" y="254.865" width="81.9797" height="20" class="st2"/>
			<text x="9.2" y="267.57" class="st13" v:langID="2052"><v:paragraph v:horizAlign="1"/><v:tabList/>2. upload dataset</text>		</g>
		<g id="shape21-72" v:mID="21" v:groupContext="shape" transform="translate(278.471,-86.509) rotate(45)">
			<title>Sheet.21</title>
			<path d="M5.8 274.87 L6.16 274.87 L91.22 274.87" class="st16"/>
		</g>
		<g id="shape22-77" v:mID="22" v:groupContext="shape" transform="translate(278.321,-84.3274) rotate(45)">
			<title>Sheet.22</title>
			<desc>4. return results</desc>
			<v:textBlock v:margins="rect(4,4,4,4)"/>
			<v:textRect cx="40.9898" cy="264.865" width="81.98" height="20"/>
			<rect x="0" y="254.865" width="81.9797" height="20" class="st2"/>
			<text x="11.69" y="267.57" class="st13" v:langID="2052"><v:paragraph v:horizAlign="1"/><v:tabList/>4. return results</text>		</g>
		<g id="shape23-80" v:mID="23" v:groupContext="shape" transform="translate(126.046,-26.359) rotate(-45)">
			<title>Sheet.23</title>
			<desc>4. return results</desc>
			<v:textBlock v:margins="rect(4,4,4,4)"/>
			<v:textRect cx="40.9898" cy="264.865" width="81.98" height="20"/>
			<rect x="0" y="254.865" width="81.9797" height="20" class="st2"/>
			<text x="11.69" y="267.57" class="st13" v:langID="2052"><v:paragraph v:horizAlign="1"/><v:tabList/>4. return results</text>		</g>
		<g id="shape24-83" v:mID="24" v:groupContext="shape" transform="translate(114.679,-17.284) rotate(-45)">
			<title>Sheet.24</title>
			<path d="M0 274.87 L91.74 274.87" class="st15"/>
		</g>
		<g id="shape25-88" v:mID="25" v:groupContext="shape" v:layerMember="0" transform="translate(8.18258,203.244) rotate(-90)">
			<title>Rotation.1041</title>
			<v:userDefs>
				<v:ud v:nameU="Arrows" v:val="VT0(0):26"/>
				<v:ud v:nameU="visDescription" v:val="VT4(Rotation, one direction. Right-click for both directions.)"/>
				<v:ud v:nameU="visVersion" v:val="VT0(15):26"/>
			</v:userDefs>
			<path d="M7.83 270.08 L10.99 268.93 L8.24 266.62 L7.83 270.08 Z" class="st17"/>
			<path d="M0 266.62 A5.19973 5.19973 -180 1 0 9.41 269.51" class="st18"/>
			<path d="M7.83 270.08 L10.99 268.93 L8.24 266.62 L7.83 270.08" class="st18"/>
		</g>
		<g id="shape26-92" v:mID="26" v:groupContext="shape" transform="translate(245.662,-51.8651)">
			<title>Sheet.26</title>
			<desc>3. calculate</desc>
			<v:textBlock v:margins="rect(4,4,4,4)"/>
			<v:textRect cx="27.9176" cy="264.865" width="55.84" height="20"/>
			<rect x="0" y="254.865" width="55.8352" height="20" class="st2"/>
			<text x="7.19" y="267.57" class="st13" v:langID="2052"><v:paragraph v:horizAlign="1"/><v:tabList/>3. calculate</text>		</g>
		<g id="shape27-95" v:mID="27" v:groupContext="shape" transform="translate(40.7625,-176.865)">
			<title>Sheet.27</title>
			<desc>TEE env</desc>
			<v:textBlock v:margins="rect(4,4,4,4)"/>
			<v:textRect cx="29.4" cy="264.865" width="58.8" height="20"/>
			<rect x="0" y="254.865" width="58.8" height="20" class="st2"/>
			<text x="10.14" y="268.47" class="st19" v:langID="2052"><v:paragraph v:horizAlign="1"/><v:tabList/>TEE env</text>		</g>
		<g id="shape28-98" v:mID="28" v:groupContext="shape" transform="translate(159.862,-24.8651)">
			<title>Sheet.28</title>
			<desc>TEE env</desc>
			<v:textBlock v:margins="rect(4,4,4,4)"/>
			<v:textRect cx="29.4" cy="264.865" width="58.8" height="20"/>
			<rect x="0" y="254.865" width="58.8" height="20" class="st2"/>
			<text x="10.14" y="268.47" class="st19" v:langID="2052"><v:paragraph v:horizAlign="1"/><v:tabList/>TEE env</text>		</g>
		<g id="group29-101" transform="translate(115.162,-208.281)" v:mID="29" v:groupContext="group">
			<title>Sheet.29</title>
			<g id="group30-102" transform="translate(0,-4.47457)" v:mID="30" v:groupContext="group">
				<title>Sheet.30</title>
				<g id="shape31-103" v:mID="31" v:groupContext="shape">
					<title>Ellipse.1115</title>
					<v:userDefs>
						<v:ud v:nameU="visVersion" v:val="VT0(15):26"/>
					</v:userDefs>
					<path d="M0 268.03 A11.9324 6.83263 0 0 1 23.86 268.03 A11.9324 6.83263 0 1 1 0 268.03 Z" class="st6"/>
				</g>
				<g id="shape32-105" v:mID="32" v:groupContext="shape" transform="translate(-21.108,-6.83263)">
					<title>Rectangle.1116</title>
					<desc>a</desc>
					<v:userDefs>
						<v:ud v:nameU="visVersion" v:val="VT0(15):26"/>
					</v:userDefs>
					<v:textBlock v:margins="rect(4,4,4,4)"/>
					<v:textRect cx="22.4864" cy="265.813" width="44.98" height="18.1035"/>
					<rect x="0" y="256.762" width="44.9728" height="18.1035" class="st7"/>
					<text x="20.27" y="268.81" class="st8" v:langID="2052"><v:paragraph v:horizAlign="1"/><v:tabList/>a</text>				</g>
				<g id="shape33-108" v:mID="33" v:groupContext="shape" transform="translate(0,-17.6947)">
					<title>Ellipse.1114</title>
					<v:userDefs>
						<v:ud v:nameU="visVersion" v:val="VT0(15):26"/>
					</v:userDefs>
					<path d="M0 268.03 A11.9324 6.83263 0 0 1 23.86 268.03 A11.9324 6.83263 0 1 1 0 268.03 Z" class="st9"/>
				</g>
				<g id="shape34-110" v:mID="34" v:groupContext="shape" transform="translate(274.865,250.338) rotate(90)">
					<title>Sheet.34</title>
					<path d="M0 274.87 L17.69 274.87" class="st10"/>
				</g>
				<g id="shape35-113" v:mID="35" v:groupContext="shape" transform="translate(298.73,250.338) rotate(90)">
					<title>Sheet.35</title>
					<path d="M0 274.87 L17.69 274.87" class="st10"/>
				</g>
			</g>
			<g id="group36-116" transform="translate(17.1148,0)" v:mID="36" v:groupContext="group">
				<title>Sheet.36</title>
				<g id="shape37-117" v:mID="37" v:groupContext="shape">
					<title>Ellipse.1115</title>
					<v:userDefs>
						<v:ud v:nameU="visVersion" v:val="VT0(15):26"/>
					</v:userDefs>
					<path d="M0 271.58 A6.75 3.28518 0 1 1 13.5 271.58 A6.75 3.28518 0 1 1 0 271.58 Z" class="st6"/>
				</g>
				<g id="shape38-119" v:mID="38" v:groupContext="shape" transform="translate(7.39409E-14,-3.28518)">
					<title>Rectangle.1116</title>
					<desc>a</desc>
					<v:userDefs>
						<v:ud v:nameU="visVersion" v:val="VT0(15):26"/>
					</v:userDefs>
					<v:textBlock v:margins="rect(4,4,4,4)"/>
					<v:textRect cx="6.75" cy="270.513" width="13.51" height="8.70431"/>
					<rect x="0" y="266.161" width="13.5" height="8.70431" class="st7"/>
					<text x="4.53" y="273.51" class="st8" v:langID="2052"><v:paragraph v:horizAlign="1"/><v:tabList/>a</text>				</g>
				<g id="shape39-122" v:mID="39" v:groupContext="shape" transform="translate(1.91847E-13,-8.50777)">
					<title>Ellipse.1114</title>
					<v:userDefs>
						<v:ud v:nameU="visVersion" v:val="VT0(15):26"/>
					</v:userDefs>
					<path d="M0 271.58 A6.75 3.28518 0 1 1 13.5 271.58 A6.75 3.28518 0 1 1 0 271.58 Z" class="st9"/>
				</g>
				<g id="shape40-124" v:mID="40" v:groupContext="shape" transform="translate(274.865,263.072) rotate(90)">
					<title>Sheet.40</title>
					<path d="M0 274.87 L8.51 274.87" class="st10"/>
				</g>
				<g id="shape41-127" v:mID="41" v:groupContext="shape" transform="translate(288.365,263.072) rotate(90)">
					<title>Sheet.41</title>
					<path d="M0 274.87 L8.51 274.87" class="st10"/>
				</g>
			</g>
		</g>
		<g id="shape42-130" v:mID="42" v:groupContext="shape" transform="translate(99.8273,-193.865)">
			<title>Sheet.42</title>
			<desc>Dataset</desc>
			<v:textBlock v:margins="rect(2,2,2,2)"/>
			<v:textRect cx="27.9176" cy="268.865" width="55.84" height="12"/>
			<rect x="0" y="262.865" width="55.8352" height="12" class="st2"/>
			<text x="15.92" y="271.26" class="st3" v:langID="2052"><v:paragraph v:horizAlign="1"/><v:tabList/>Dataset</text>		</g>
		<g id="shape43-133" v:mID="43" v:groupContext="shape" transform="translate(272.662,-225.365)">
			<title>Sheet.43</title>
			<desc>Client B</desc>
			<v:textBlock v:margins="rect(2,2,2,2)"/>
			<v:textRect cx="27.9176" cy="268.865" width="55.84" height="12"/>
			<rect x="0" y="262.865" width="55.8352" height="12" class="st2"/>
			<text x="14.47" y="271.26" class="st3" v:langID="2052"><v:paragraph v:horizAlign="1"/><v:tabList/>Client<tspan
						class="st4" v:langID="1033"> </tspan>B</text>		</g>
		<g id="shape44-137" v:mID="44" v:groupContext="shape" transform="translate(272.662,-173.984)">
			<title>Sheet.44</title>
			<rect x="0" y="193.484" width="126" height="81.3809" class="st14"/>
		</g>
		<g id="shape45-139" v:mID="45" v:groupContext="shape" transform="translate(277.162,-176.865)">
			<title>Sheet.45</title>
			<desc>TEE env</desc>
			<v:textBlock v:margins="rect(4,4,4,4)"/>
			<v:textRect cx="29.4" cy="264.865" width="58.8" height="20"/>
			<rect x="0" y="254.865" width="58.8" height="20" class="st2"/>
			<text x="10.14" y="268.47" class="st19" v:langID="2052"><v:paragraph v:horizAlign="1"/><v:tabList/>TEE env</text>		</g>
		<g id="group46-142" transform="translate(351.562,-208.281)" v:mID="46" v:groupContext="group">
			<title>Sheet.46</title>
			<g id="group47-143" transform="translate(0,-4.47457)" v:mID="47" v:groupContext="group">
				<title>Sheet.47</title>
				<g id="shape48-144" v:mID="48" v:groupContext="shape">
					<title>Ellipse.1115</title>
					<v:userDefs>
						<v:ud v:nameU="visVersion" v:val="VT0(15):26"/>
					</v:userDefs>
					<path d="M0 268.03 A11.9324 6.83263 0 0 1 23.86 268.03 A11.9324 6.83263 0 1 1 0 268.03 Z" class="st6"/>
				</g>
				<g id="shape49-146" v:mID="49" v:groupContext="shape" transform="translate(-21.108,-6.83263)">
					<title>Rectangle.1116</title>
					<desc>a</desc>
					<v:userDefs>
						<v:ud v:nameU="visVersion" v:val="VT0(15):26"/>
					</v:userDefs>
					<v:textBlock v:margins="rect(4,4,4,4)"/>
					<v:textRect cx="22.4864" cy="265.813" width="44.98" height="18.1035"/>
					<rect x="0" y="256.762" width="44.9728" height="18.1035" class="st7"/>
					<text x="20.27" y="268.81" class="st8" v:langID="2052"><v:paragraph v:horizAlign="1"/><v:tabList/>a</text>				</g>
				<g id="shape50-149" v:mID="50" v:groupContext="shape" transform="translate(0,-17.6947)">
					<title>Ellipse.1114</title>
					<v:userDefs>
						<v:ud v:nameU="visVersion" v:val="VT0(15):26"/>
					</v:userDefs>
					<path d="M0 268.03 A11.9324 6.83263 0 0 1 23.86 268.03 A11.9324 6.83263 0 1 1 0 268.03 Z" class="st9"/>
				</g>
				<g id="shape51-151" v:mID="51" v:groupContext="shape" transform="translate(274.865,250.338) rotate(90)">
					<title>Sheet.51</title>
					<path d="M0 274.87 L17.69 274.87" class="st10"/>
				</g>
				<g id="shape52-154" v:mID="52" v:groupContext="shape" transform="translate(298.73,250.338) rotate(90)">
					<title>Sheet.52</title>
					<path d="M0 274.87 L17.69 274.87" class="st10"/>
				</g>
			</g>
			<g id="group53-157" transform="translate(17.1148,0)" v:mID="53" v:groupContext="group">
				<title>Sheet.53</title>
				<g id="shape54-158" v:mID="54" v:groupContext="shape">
					<title>Ellipse.1115</title>
					<v:userDefs>
						<v:ud v:nameU="visVersion" v:val="VT0(15):26"/>
					</v:userDefs>
					<path d="M0 271.58 A6.75 3.28518 0 1 1 13.5 271.58 A6.75 3.28518 0 1 1 0 271.58 Z" class="st6"/>
				</g>
				<g id="shape55-160" v:mID="55" v:groupContext="shape" transform="translate(7.39409E-14,-3.28518)">
					<title>Rectangle.1116</title>
					<desc>a</desc>
					<v:userDefs>
						<v:ud v:nameU="visVersion" v:val="VT0(15):26"/>
					</v:userDefs>
					<v:textBlock v:margins="rect(4,4,4,4)"/>
					<v:textRect cx="6.75" cy="270.513" width="13.51" height="8.70431"/>
					<rect x="0" y="266.161" width="13.5" height="8.70431" class="st7"/>
					<text x="4.53" y="273.51" class="st8" v:langID="2052"><v:paragraph v:horizAlign="1"/><v:tabList/>a</text>				</g>
				<g id="shape56-163" v:mID="56" v:groupContext="shape" transform="translate(1.91847E-13,-8.50777)">
					<title>Ellipse.1114</title>
					<v:userDefs>
						<v:ud v:nameU="visVersion" v:val="VT0(15):26"/>
					</v:userDefs>
					<path d="M0 271.58 A6.75 3.28518 0 1 1 13.5 271.58 A6.75 3.28518 0 1 1 0 271.58 Z" class="st9"/>
				</g>
				<g id="shape57-165" v:mID="57" v:groupContext="shape" transform="translate(274.865,263.072) rotate(90)">
					<title>Sheet.57</title>
					<path d="M0 274.87 L8.51 274.87" class="st10"/>
				</g>
				<g id="shape58-168" v:mID="58" v:groupContext="shape" transform="translate(288.365,263.072) rotate(90)">
					<title>Sheet.58</title>
					<path d="M0 274.87 L8.51 274.87" class="st10"/>
				</g>
			</g>
		</g>
		<g id="shape59-171" v:mID="59" v:groupContext="shape" transform="translate(336.227,-193.865)">
			<title>Sheet.59</title>
			<desc>Dataset</desc>
			<v:textBlock v:margins="rect(2,2,2,2)"/>
			<v:textRect cx="27.9176" cy="268.865" width="55.84" height="12"/>
			<rect x="0" y="262.865" width="55.8352" height="12" class="st2"/>
			<text x="15.92" y="271.26" class="st3" v:langID="2052"><v:paragraph v:horizAlign="1"/><v:tabList/>Dataset</text>		</g>
	</g>
</svg>
