<svg width="2415" height="634" xmlns="http://www.w3.org/2000/svg" xmlns:xlink="http://www.w3.org/1999/xlink" xml:space="preserve" overflow="hidden"><defs><clipPath id="clip0"><rect x="-1" y="0" width="2415" height="634"/></clipPath></defs><g clip-path="url(#clip0)" transform="translate(1 0)"><path d="M1.49987 106.6C1.49987 99.9174 6.9172 94.5 13.5998 94.5L285.4 94.5C292.083 94.5 297.5 99.9174 297.5 106.6L297.5 203.4C297.5 210.083 292.083 215.5 285.4 215.5L13.5998 215.5C6.9172 215.5 1.49987 210.083 1.49987 203.4Z" stroke="#FFFFFF" stroke-width="4.58333" stroke-miterlimit="8" fill="#4472C4" fill-rule="evenodd"/><text fill="#FFFFFF" font-family="Calibri,Calibri_MSFontService,sans-serif" font-weight="400" font-size="23" transform="matrix(1 0 0 1 14.1564 126)">Step 1<tspan font-size="23" x="0" y="35">Deploy Azure Services</tspan></text><path d="M20.5001 217.4C20.5001 197.573 36.5731 181.5 56.4002 181.5L362.6 181.5C382.427 181.5 398.5 197.573 398.5 217.4L398.5 504.6C398.5 524.427 382.427 540.5 362.6 540.5L56.4002 540.5C36.5731 540.5 20.5001 524.427 20.5001 504.6Z" stroke="#4472C4" stroke-width="4.58333" stroke-miterlimit="8" fill="#FFFFFF" fill-rule="evenodd" fill-opacity="0.901961"/><text font-family="Calibri,Calibri_MSFontService,sans-serif" font-weight="400" font-size="23" transform="matrix(1 0 0 1 43.7961 223)">•<tspan font-size="23" x="20.625" y="0">Create Azure Container Registry</tspan><tspan font-size="23" x="0" y="29">•</tspan><tspan font-size="23" x="20.625" y="29">Create AKS Cluster</tspan><tspan font-size="23" x="0" y="59">•</tspan><tspan font-size="23" x="20.625" y="59">Create Azure File Share</tspan><tspan font-size="23" x="0" y="88">•</tspan><tspan font-size="23" x="20.625" y="88">Create VMs for Trusted System </tspan><tspan font-size="23" x="20.625" y="113">and Client System</tspan><tspan font-size="23" x="0" y="143">•</tspan><tspan font-size="23" x="20.625" y="143">Configure network security </tspan><tspan font-size="23" x="20.625" y="168">group of Trusted System VM</tspan></text><path d="M351.531 111.353 431.575 110.913 431.495 96.2124 468.448 132.762 431.898 169.716 431.818 155.015 351.773 155.455Z" fill="#B0BCDE" fill-rule="evenodd"/><path d="M517.5 103.7C517.5 96.9621 522.962 91.4999 529.7 91.4999L800.3 91.4999C807.038 91.4999 812.5 96.9621 812.5 103.7L812.5 201.3C812.5 208.038 807.038 213.5 800.3 213.5L529.7 213.5C522.962 213.5 517.5 208.038 517.5 201.3Z" stroke="#FFFFFF" stroke-width="4.58333" stroke-miterlimit="8" fill="#4472C4" fill-rule="evenodd"/><text fill="#FFFFFF" font-family="Calibri,Calibri_MSFontService,sans-serif" font-weight="400" font-size="23" transform="matrix(1 0 0 1 529.763 123)">Step 2<tspan font-size="23" x="0" y="35">Prepare Applications</tspan></text><path d="M535.5 209.5C535.5 189.066 552.066 172.5 572.5 172.5L878.5 172.5C898.934 172.5 915.5 189.066 915.5 209.5L915.5 505.5C915.5 525.934 898.934 542.5 878.5 542.5L572.5 542.5C552.066 542.5 535.5 525.934 535.5 505.5Z" stroke="#4472C4" stroke-width="4.58333" stroke-miterlimit="8" fill="#FFFFFF" fill-rule="evenodd" fill-opacity="0.901961"/><text font-family="Calibri,Calibri_MSFontService,sans-serif" font-weight="400" font-size="23" transform="matrix(1 0 0 1 558.9 215)">•<tspan font-size="23" x="20.625" y="0">Download / Build Client, Secret </tspan><tspan font-size="23" x="20.625" y="25">Provisioning, and ML Serving </tspan><tspan font-size="23" x="20.625" y="50">containers</tspan><tspan font-size="23" x="0" y="80">•</tspan><tspan font-size="23" x="20.625" y="80">Start Secret Provisioning </tspan><tspan font-size="23" x="20.625" y="105">container</tspan><tspan font-size="23" x="0" y="134">•</tspan><tspan font-size="23" x="20.625" y="134">Prepare ML Model and SSL/TLS </tspan><tspan font-size="23" x="20.625" y="160">certificates</tspan><tspan font-size="23" x="0" y="189">•</tspan><tspan font-size="23" x="20.625" y="189">Upload encrypted files to file </tspan><tspan font-size="23" x="20.625" y="214">share</tspan><tspan font-size="23" x="0" y="243">•</tspan><tspan font-size="23" x="20.625" y="243">Push ML Serving container to </tspan><tspan font-size="23" x="20.625" y="269">container registry</tspan></text><path d="M867 109.6 948.5 109.6 948.5 94.9999 985 131.5 948.5 168 948.5 153.4 867 153.4Z" fill="#B0BCDE" fill-rule="evenodd"/><path d="M1033.5 103.7C1033.5 96.962 1038.96 91.4999 1045.7 91.4999L1317.3 91.4999C1324.04 91.4999 1329.5 96.962 1329.5 103.7L1329.5 201.3C1329.5 208.038 1324.04 213.5 1317.3 213.5L1045.7 213.5C1038.96 213.5 1033.5 208.038 1033.5 201.3Z" stroke="#FFFFFF" stroke-width="4.58333" stroke-miterlimit="8" fill="#4472C4" fill-rule="evenodd"/><text fill="#FFFFFF" font-family="Calibri,Calibri_MSFontService,sans-serif" font-weight="400" font-size="23" transform="matrix(1 0 0 1 1046.21 123)">Step 3<tspan font-size="23" x="0" y="35">Configure AKS</tspan></text><path d="M1075.5 205.8C1075.5 187.409 1090.41 172.5 1108.8 172.5L1375.2 172.5C1393.59 172.5 1408.5 187.409 1408.5 205.8L1408.5 509.2C1408.5 527.591 1393.59 542.5 1375.2 542.5L1108.8 542.5C1090.41 542.5 1075.5 527.591 1075.5 509.2Z" stroke="#4472C4" stroke-width="4.58333" stroke-miterlimit="8" fill="#FFFFFF" fill-rule="evenodd" fill-opacity="0.901961"/><text font-family="Calibri,Calibri_MSFontService,sans-serif" font-weight="400" font-size="23" transform="matrix(1 0 0 1 1097.41 214)">•<tspan font-size="23" x="20.625" y="0">Deploy Flannel</tspan><tspan font-size="23" x="0" y="29">•</tspan><tspan font-size="23" x="20.625" y="29">Deploy Nginx</tspan><tspan font-size="23" x="0" y="59">•</tspan><tspan font-size="23" x="20.625" y="59">Deploy custom CoreDNS </tspan><tspan font-size="23" x="20.625" y="84">config</tspan></text><path d="M1378 109.6 1446.5 109.6 1446.5 94.9999 1483 131.5 1446.5 168 1446.5 153.4 1378 153.4Z" fill="#B0BCDE" fill-rule="evenodd"/><path d="M1527.5 103.7C1527.5 96.9621 1532.96 91.4999 1539.7 91.4999L1810.3 91.4999C1817.04 91.4999 1822.5 96.9621 1822.5 103.7L1822.5 201.3C1822.5 208.038 1817.04 213.5 1810.3 213.5L1539.7 213.5C1532.96 213.5 1527.5 208.038 1527.5 201.3Z" stroke="#FFFFFF" stroke-width="4.58333" stroke-miterlimit="8" fill="#4472C4" fill-rule="evenodd"/><text fill="#FFFFFF" font-family="Calibri,Calibri_MSFontService,sans-serif" font-weight="400" font-size="23" transform="matrix(1 0 0 1 1539.5 123)">Step 4<tspan font-size="23" x="0" y="35">Deploy ML Serving</tspan></text><path d="M1558.5 207.8C1558.5 188.304 1574.3 172.5 1593.8 172.5L1876.2 172.5C1895.7 172.5 1911.5 188.304 1911.5 207.8L1911.5 507.2C1911.5 526.696 1895.7 542.5 1876.2 542.5L1593.8 542.5C1574.3 542.5 1558.5 526.696 1558.5 507.2Z" stroke="#4472C4" stroke-width="4.58333" stroke-miterlimit="8" fill="#FFFFFF" fill-rule="evenodd" fill-opacity="0.901961"/><text font-family="Calibri,Calibri_MSFontService,sans-serif" font-weight="400" font-size="23" transform="matrix(1 0 0 1 1581.27 214)">•<tspan font-size="23" x="20.625" y="0">Deploy ML Serving service</tspan></text><path d="M1874 109.6 1947.5 109.6 1947.5 94.9999 1984 131.5 1947.5 168 1947.5 153.4 1874 153.4Z" fill="#B0BCDE" fill-rule="evenodd"/><path d="M2030.5 103.7C2030.5 96.9621 2035.96 91.4999 2042.7 91.4999L2313.3 91.4999C2320.04 91.4999 2325.5 96.9621 2325.5 103.7L2325.5 201.3C2325.5 208.038 2320.04 213.5 2313.3 213.5L2042.7 213.5C2035.96 213.5 2030.5 208.038 2030.5 201.3Z" stroke="#FFFFFF" stroke-width="4.58333" stroke-miterlimit="8" fill="#4472C4" fill-rule="evenodd"/><text fill="#FFFFFF" font-family="Calibri,Calibri_MSFontService,sans-serif" font-weight="400" font-size="23" transform="matrix(1 0 0 1 2042.81 123)">Step 5<tspan font-size="23" x="0" y="35">Inference Request</tspan></text><path d="M2065.5 207.1C2065.5 187.991 2080.99 172.5 2100.1 172.5L2376.9 172.5C2396.01 172.5 2411.5 187.991 2411.5 207.1L2411.5 507.9C2411.5 527.009 2396.01 542.5 2376.9 542.5L2100.1 542.5C2080.99 542.5 2065.5 527.009 2065.5 507.9Z" stroke="#4472C4" stroke-width="4.58333" stroke-miterlimit="8" fill="#FFFFFF" fill-rule="evenodd" fill-opacity="0.901961"/><text font-family="Calibri,Calibri_MSFontService,sans-serif" font-weight="400" font-size="23" transform="matrix(1 0 0 1 2088.2 214)">•<tspan font-size="23" x="20.625" y="0">Start Client container</tspan><tspan font-size="23" x="0" y="29">•</tspan><tspan font-size="23" x="20.625" y="29">Send inference request</tspan><tspan font-size="23" x="0" y="59">•</tspan><tspan font-size="23" x="20.625" y="59">Receive inference response</tspan></text></g></svg>