<svg width="2413" height="420" xmlns="http://www.w3.org/2000/svg" xmlns:xlink="http://www.w3.org/1999/xlink" xml:space="preserve" overflow="hidden"><defs><clipPath id="clip0"><rect x="0" y="0" width="2413" height="420"/></clipPath></defs><g clip-path="url(#clip0)"><path d="M2.4999 25.5999C2.4999 18.9173 7.91727 13.4999 14.5999 13.4999L285.4 13.4999C292.082 13.4999 297.5 18.9173 297.5 25.5999L297.5 122.4C297.5 129.083 292.082 134.5 285.4 134.5L14.5999 134.5C7.91727 134.5 2.4999 129.083 2.4999 122.4Z" stroke="#FFFFFF" stroke-width="4.58333" stroke-miterlimit="8" fill="#4472C4" fill-rule="evenodd"/><text fill="#FFFFFF" font-family="Calibri,Calibri_MSFontService,sans-serif" font-weight="400" font-size="23" transform="matrix(1 0 0 1 15.3329 45)">Step 1</text><text fill="#FFFFFF" font-family="Calibri,Calibri_MSFontService,sans-serif" font-weight="400" font-size="23" transform="matrix(1 0 0 1 15.3329 80)">Deploy Azure Services</text><path d="M22.4998 130.3C22.4998 113.289 36.2894 99.4998 53.2997 99.4998L368.7 99.4998C385.71 99.4998 399.5 113.289 399.5 130.3L399.5 376.7C399.5 393.71 385.71 407.5 368.7 407.5L53.2997 407.5C36.2894 407.5 22.4998 393.71 22.4998 376.7Z" stroke="#4472C4" stroke-width="4.58333" stroke-miterlimit="8" fill="#FFFFFF" fill-rule="evenodd" fill-opacity="0.901961"/><text font-family="Calibri,Calibri_MSFontService,sans-serif" font-weight="400" font-size="23" transform="matrix(1 0 0 1 43.4587 140)">•</text><text font-family="Calibri,Calibri_MSFontService,sans-serif" font-weight="400" font-size="23" transform="matrix(1 0 0 1 64.0837 140)">Create Azure Container Registry</text><text font-family="Calibri,Calibri_MSFontService,sans-serif" font-weight="400" font-size="23" transform="matrix(1 0 0 1 43.4587 169)">•</text><text font-family="Calibri,Calibri_MSFontService,sans-serif" font-weight="400" font-size="23" transform="matrix(1 0 0 1 64.0837 169)">Create AKS Cluster</text><text font-family="Calibri,Calibri_MSFontService,sans-serif" font-weight="400" font-size="23" transform="matrix(1 0 0 1 43.4587 199)">•</text><text font-family="Calibri,Calibri_MSFontService,sans-serif" font-weight="400" font-size="23" transform="matrix(1 0 0 1 64.0837 199)">Create Azure File Share</text><text font-family="Calibri,Calibri_MSFontService,sans-serif" font-weight="400" font-size="23" transform="matrix(1 0 0 1 43.4587 228)">•</text><text font-family="Calibri,Calibri_MSFontService,sans-serif" font-weight="400" font-size="23" transform="matrix(1 0 0 1 64.0837 228)">Create VMs for Trusted System </text><text font-family="Calibri,Calibri_MSFontService,sans-serif" font-weight="400" font-size="23" transform="matrix(1 0 0 1 64.0837 253)">and Client System</text><text font-family="Calibri,Calibri_MSFontService,sans-serif" font-weight="400" font-size="23" transform="matrix(1 0 0 1 43.4587 283)">•</text><text font-family="Calibri,Calibri_MSFontService,sans-serif" font-weight="400" font-size="23" transform="matrix(1 0 0 1 64.0837 283)">Configure network security group </text><text font-family="Calibri,Calibri_MSFontService,sans-serif" font-weight="400" font-size="23" transform="matrix(1 0 0 1 64.0837 308)">of Trusted System VM</text><path d="M352.168 28.4749 432.137 27.3191 431.925 12.6339 469.168 48.8162 432.986 86.0595 432.774 71.3744 352.805 72.5302Z" fill="#B0BCDE" fill-rule="evenodd"/><path d="M518.5 18.6001C518.5 11.9174 523.917 6.50003 530.6 6.50003L801.4 6.50003C808.083 6.50003 813.5 11.9174 813.5 18.6001L813.5 115.4C813.5 122.083 808.083 127.5 801.4 127.5L530.6 127.5C523.917 127.5 518.5 122.083 518.5 115.4Z" stroke="#FFFFFF" stroke-width="4.58333" stroke-miterlimit="8" fill="#4472C4" fill-rule="evenodd"/><text fill="#FFFFFF" font-family="Calibri,Calibri_MSFontService,sans-serif" font-weight="400" font-size="23" transform="matrix(1 0 0 1 530.436 37)">Step 2</text><text fill="#FFFFFF" font-family="Calibri,Calibri_MSFontService,sans-serif" font-weight="400" font-size="23" transform="matrix(1 0 0 1 530.436 72)">Prepare Applications</text><path d="M536.5 119.3C536.5 101.185 551.185 86.5001 569.3 86.5001L882.7 86.5001C900.815 86.5001 915.5 101.185 915.5 119.3L915.5 381.7C915.5 399.815 900.815 414.5 882.7 414.5L569.3 414.5C551.185 414.5 536.5 399.815 536.5 381.7Z" stroke="#4472C4" stroke-width="4.58333" stroke-miterlimit="8" fill="#FFFFFF" fill-rule="evenodd" fill-opacity="0.901961"/><text font-family="Calibri,Calibri_MSFontService,sans-serif" font-weight="400" font-size="23" transform="matrix(1 0 0 1 558.306 128)">•</text><text font-family="Calibri,Calibri_MSFontService,sans-serif" font-weight="400" font-size="23" transform="matrix(1 0 0 1 578.931 128)">Build Client, Secret Provisioning, </text><text font-family="Calibri,Calibri_MSFontService,sans-serif" font-weight="400" font-size="23" transform="matrix(1 0 0 1 578.931 153)">and ML Serving containers</text><text font-family="Calibri,Calibri_MSFontService,sans-serif" font-weight="400" font-size="23" transform="matrix(1 0 0 1 558.306 183)">•</text><text font-family="Calibri,Calibri_MSFontService,sans-serif" font-weight="400" font-size="23" transform="matrix(1 0 0 1 578.931 183)">Start Secret Provisioning </text><text font-family="Calibri,Calibri_MSFontService,sans-serif" font-weight="400" font-size="23" transform="matrix(1 0 0 1 578.931 208)">container</text><text font-family="Calibri,Calibri_MSFontService,sans-serif" font-weight="400" font-size="23" transform="matrix(1 0 0 1 558.306 237)">•</text><text font-family="Calibri,Calibri_MSFontService,sans-serif" font-weight="400" font-size="23" transform="matrix(1 0 0 1 578.931 237)">Prepare ML Model and SSL/TLS </text><text font-family="Calibri,Calibri_MSFontService,sans-serif" font-weight="400" font-size="23" transform="matrix(1 0 0 1 578.931 262)">certificates</text><text font-family="Calibri,Calibri_MSFontService,sans-serif" font-weight="400" font-size="23" transform="matrix(1 0 0 1 558.306 292)">•</text><text font-family="Calibri,Calibri_MSFontService,sans-serif" font-weight="400" font-size="23" transform="matrix(1 0 0 1 578.931 292)">Upload encrypted files to file </text><text font-family="Calibri,Calibri_MSFontService,sans-serif" font-weight="400" font-size="23" transform="matrix(1 0 0 1 578.931 317)">share</text><text font-family="Calibri,Calibri_MSFontService,sans-serif" font-weight="400" font-size="23" transform="matrix(1 0 0 1 558.306 346)">•</text><text font-family="Calibri,Calibri_MSFontService,sans-serif" font-weight="400" font-size="23" transform="matrix(1 0 0 1 578.931 346)">Push ML Serving container to </text><text font-family="Calibri,Calibri_MSFontService,sans-serif" font-weight="400" font-size="23" transform="matrix(1 0 0 1 578.931 371)">container registry</text><path d="M868 23.8 948 23.8 948 8.99993 985 45.9999 948 82.9998 948 68.1998 868 68.1998Z" fill="#B0BCDE" fill-rule="evenodd"/><path d="M1034.5 18.5999C1034.5 11.9173 1039.92 6.50003 1046.6 6.50003L1316.4 6.50003C1323.08 6.50003 1328.5 11.9173 1328.5 18.5999L1328.5 115.4C1328.5 122.083 1323.08 127.5 1316.4 127.5L1046.6 127.5C1039.92 127.5 1034.5 122.083 1034.5 115.4Z" stroke="#FFFFFF" stroke-width="4.58333" stroke-miterlimit="8" fill="#4472C4" fill-rule="evenodd"/><text fill="#FFFFFF" font-family="Calibri,Calibri_MSFontService,sans-serif" font-weight="400" font-size="23" transform="matrix(1 0 0 1 1046.37 37)">Step 3</text><text fill="#FFFFFF" font-family="Calibri,Calibri_MSFontService,sans-serif" font-weight="400" font-size="23" transform="matrix(1 0 0 1 1046.37 72)">Configure AKS</text><path d="M1075.5 119.3C1075.5 101.185 1090.19 86.5001 1108.3 86.5001L1375.7 86.5001C1393.81 86.5001 1408.5 101.185 1408.5 119.3L1408.5 381.7C1408.5 399.815 1393.81 414.5 1375.7 414.5L1108.3 414.5C1090.19 414.5 1075.5 399.815 1075.5 381.7Z" stroke="#4472C4" stroke-width="4.58333" stroke-miterlimit="8" fill="#FFFFFF" fill-rule="evenodd" fill-opacity="0.901961"/><text font-family="Calibri,Calibri_MSFontService,sans-serif" font-weight="400" font-size="23" transform="matrix(1 0 0 1 1097.37 128)">•</text><text font-family="Calibri,Calibri_MSFontService,sans-serif" font-weight="400" font-size="23" transform="matrix(1 0 0 1 1118 128)">Deploy Flannel</text><text font-family="Calibri,Calibri_MSFontService,sans-serif" font-weight="400" font-size="23" transform="matrix(1 0 0 1 1097.37 157)">•</text><text font-family="Calibri,Calibri_MSFontService,sans-serif" font-weight="400" font-size="23" transform="matrix(1 0 0 1 1118 157)">Deploy Nginx</text><text font-family="Calibri,Calibri_MSFontService,sans-serif" font-weight="400" font-size="23" transform="matrix(1 0 0 1 1097.37 187)">•</text><text font-family="Calibri,Calibri_MSFontService,sans-serif" font-weight="400" font-size="23" transform="matrix(1 0 0 1 1118 187)">Deploy custom CoreDNS </text><text font-family="Calibri,Calibri_MSFontService,sans-serif" font-weight="400" font-size="23" transform="matrix(1 0 0 1 1118 212)">config</text><path d="M1378 23.7999 1446 23.7999 1446 8.99993 1483 45.9999 1446 82.9998 1446 68.1998 1378 68.1998Z" fill="#B0BCDE" fill-rule="evenodd"/><path d="M1526.5 18.6001C1526.5 11.9174 1531.92 6.50003 1538.6 6.50003L1809.4 6.50003C1816.08 6.50003 1821.5 11.9174 1821.5 18.6001L1821.5 115.4C1821.5 122.083 1816.08 127.5 1809.4 127.5L1538.6 127.5C1531.92 127.5 1526.5 122.083 1526.5 115.4Z" stroke="#FFFFFF" stroke-width="4.58333" stroke-miterlimit="8" fill="#4472C4" fill-rule="evenodd"/><text fill="#FFFFFF" font-family="Calibri,Calibri_MSFontService,sans-serif" font-weight="400" font-size="23" transform="matrix(1 0 0 1 1539.19 37)">Step 4</text><text fill="#FFFFFF" font-family="Calibri,Calibri_MSFontService,sans-serif" font-weight="400" font-size="23" transform="matrix(1 0 0 1 1539.19 72)">Deploy ML Serving</text><path d="M1558.5 119.3C1558.5 101.185 1573.19 86.5001 1591.3 86.5001L1878.7 86.5001C1896.82 86.5001 1911.5 101.185 1911.5 119.3L1911.5 381.7C1911.5 399.815 1896.82 414.5 1878.7 414.5L1591.3 414.5C1573.19 414.5 1558.5 399.815 1558.5 381.7Z" stroke="#4472C4" stroke-width="4.58333" stroke-miterlimit="8" fill="#FFFFFF" fill-rule="evenodd" fill-opacity="0.901961"/><text font-family="Calibri,Calibri_MSFontService,sans-serif" font-weight="400" font-size="23" transform="matrix(1 0 0 1 1580.17 128)">•</text><text font-family="Calibri,Calibri_MSFontService,sans-serif" font-weight="400" font-size="23" transform="matrix(1 0 0 1 1600.8 128)">Deploy ML Serving service</text><path d="M1873 23.7999 1946 23.7999 1946 8.99993 1983 45.9999 1946 82.9998 1946 68.1999 1873 68.1999Z" fill="#B0BCDE" fill-rule="evenodd"/><path d="M2029.5 18.6001C2029.5 11.9174 2034.92 6.50003 2041.6 6.50003L2312.4 6.50003C2319.08 6.50003 2324.5 11.9174 2324.5 18.6001L2324.5 115.4C2324.5 122.083 2319.08 127.5 2312.4 127.5L2041.6 127.5C2034.92 127.5 2029.5 122.083 2029.5 115.4Z" stroke="#FFFFFF" stroke-width="4.58333" stroke-miterlimit="8" fill="#4472C4" fill-rule="evenodd"/><text fill="#FFFFFF" font-family="Calibri,Calibri_MSFontService,sans-serif" font-weight="400" font-size="23" transform="matrix(1 0 0 1 2042 37)">Step 5</text><text fill="#FFFFFF" font-family="Calibri,Calibri_MSFontService,sans-serif" font-weight="400" font-size="23" transform="matrix(1 0 0 1 2042 72)">Inference Request</text><path d="M2064.5 119.3C2064.5 101.185 2079.19 86.5001 2097.3 86.5001L2377.7 86.5001C2395.81 86.5001 2410.5 101.185 2410.5 119.3L2410.5 381.7C2410.5 399.815 2395.81 414.5 2377.7 414.5L2097.3 414.5C2079.19 414.5 2064.5 399.815 2064.5 381.7Z" stroke="#4472C4" stroke-width="4.58333" stroke-miterlimit="8" fill="#FFFFFF" fill-rule="evenodd" fill-opacity="0.901961"/><text font-family="Calibri,Calibri_MSFontService,sans-serif" font-weight="400" font-size="23" transform="matrix(1 0 0 1 2086.83 128)">•</text><text font-family="Calibri,Calibri_MSFontService,sans-serif" font-weight="400" font-size="23" transform="matrix(1 0 0 1 2107.46 128)">Start Client container</text><text font-family="Calibri,Calibri_MSFontService,sans-serif" font-weight="400" font-size="23" transform="matrix(1 0 0 1 2086.83 157)">•</text><text font-family="Calibri,Calibri_MSFontService,sans-serif" font-weight="400" font-size="23" transform="matrix(1 0 0 1 2107.46 157)">Send inference request</text><text font-family="Calibri,Calibri_MSFontService,sans-serif" font-weight="400" font-size="23" transform="matrix(1 0 0 1 2086.83 187)">•</text><text font-family="Calibri,Calibri_MSFontService,sans-serif" font-weight="400" font-size="23" transform="matrix(1 0 0 1 2107.46 187)">Receive inference response</text></g></svg>