<?xml version="1.0" encoding="UTF-8" standalone="no"?>
<!DOCTYPE svg PUBLIC "-//W3C//DTD SVG 1.1//EN" "http://www.w3.org/Graphics/SVG/1.1/DTD/svg11.dtd">
<!-- Generated by Microsoft Visio, SVG Export clf_opportunity.svg Page-1 -->
<svg xmlns="http://www.w3.org/2000/svg" xmlns:xlink="http://www.w3.org/1999/xlink" xmlns:ev="http://www.w3.org/2001/xml-events"
		xmlns:v="http://schemas.microsoft.com/visio/2003/SVGExtensions/" width="6.5in" height="6.375in" viewBox="0 0 468 459"
		xml:space="preserve" color-interpolation-filters="sRGB" class="st13">
	<v:documentProperties v:langID="1033" v:viewMarkup="false">
		<v:userDefs>
			<v:ud v:nameU="msvNoAutoConnect" v:val="VT0(1):26"/>
		</v:userDefs>
	</v:documentProperties>

	<style type="text/css">
	<![CDATA[
		.st1 {fill:#ffffff;stroke:#000000;stroke-dasharray:1.68,1.2;stroke-linecap:round;stroke-linejoin:round;stroke-width:0.24}
		.st2 {fill:#000000;font-family:Calibri;font-size:1.33333em;font-weight:bold}
		.st3 {fill:#ffffff;stroke:#000000;stroke-linecap:round;stroke-linejoin:round;stroke-width:0.24}
		.st4 {fill:#000000;font-family:Calibri;font-size:0.833336em}
		.st5 {fill:#c05046;stroke:#000000;stroke-linecap:round;stroke-linejoin:round;stroke-width:0.24}
		.st6 {fill:#ffffff;stroke:none;stroke-linecap:round;stroke-linejoin:round;stroke-width:0.24}
		.st7 {fill:#ffffff;stroke:#000000;stroke-linecap:round;stroke-linejoin:round;stroke-width:1.25}
		.st8 {fill:#000000;font-family:Calibri;font-size:0.666664em}
		.st9 {fill:none;stroke:none;stroke-linecap:round;stroke-linejoin:round;stroke-width:0.75}
		.st10 {stroke:#000000;stroke-linecap:round;stroke-linejoin:round;stroke-width:0.24}
		.st11 {font-size:1em}
		.st12 {fill:#000000;font-family:Calibri;font-size:1.00001em}
		.st13 {fill:none;fill-rule:evenodd;font-size:12px;overflow:visible;stroke-linecap:square;stroke-miterlimit:3}
	]]>
	</style>

	<g v:mID="0" v:index="1" v:groupContext="foregroundPage">
		<title>Page-1</title>
		<v:pageProperties v:drawingScale="1" v:pageScale="1" v:drawingUnits="19" v:shadowOffsetX="9" v:shadowOffsetY="-9"/>
		<g id="shape1001-1" v:mID="1001" v:groupContext="shape" transform="translate(27,-216)">
			<title>Rectangle.1001</title>
			<desc>Gramine</desc>
			<v:userDefs>
				<v:ud v:nameU="visVersion" v:val="VT0(15):26"/>
				<v:ud v:nameU="visMasterStencil" v:prompt="" v:val="VT4(Basic_U.vssx)"/>
			</v:userDefs>
			<v:textBlock v:margins="rect(4,4,4,4)"/>
			<v:textRect cx="207" cy="405" width="414" height="108"/>
			<path d="M0 459 L414 459 L414 351 L0 351 L0 459 Z" class="st1"/>
			<text x="178.32" y="409.8" class="st2" v:langID="1033"><v:paragraph v:horizAlign="1"/><v:tabList/>Gramine</text>		</g>
		<g id="shape1-4" v:mID="1" v:groupContext="shape" transform="translate(27,-351)">
			<title>Rectangle</title>
			<desc>C App</desc>
			<v:userDefs>
				<v:ud v:nameU="visVersion" v:val="VT0(15):26"/>
				<v:ud v:nameU="visMasterStencil" v:prompt="" v:val="VT4(Basic_U.vssx)"/>
			</v:userDefs>
			<v:textBlock v:margins="rect(4,4,4,4)"/>
			<v:textRect cx="45" cy="445.5" width="90" height="27"/>
			<rect x="0" y="432" width="90" height="27" class="st3"/>
			<text x="33.06" y="448.5" class="st4" v:langID="1033"><v:paragraph v:horizAlign="1"/><v:tabList/>C App</text>		</g>
		<g id="shape3-7" v:mID="3" v:groupContext="shape" transform="translate(135,-405)">
			<title>Rectangle.3</title>
			<desc>Java App</desc>
			<v:userDefs>
				<v:ud v:nameU="visVersion" v:val="VT0(15):26"/>
				<v:ud v:nameU="visMasterStencil" v:prompt="" v:val="VT4(Basic_U.vssx)"/>
			</v:userDefs>
			<v:textBlock v:margins="rect(4,4,4,4)"/>
			<v:textRect cx="45" cy="445.5" width="90" height="27"/>
			<rect x="0" y="432" width="90" height="27" class="st3"/>
			<text x="27.08" y="448.5" class="st4" v:langID="1033"><v:paragraph v:horizAlign="1"/><v:tabList/>Java App</text>		</g>
		<g id="shape5-10" v:mID="5" v:groupContext="shape" transform="translate(243,-405)">
			<title>Rectangle.5</title>
			<desc>Python</desc>
			<v:userDefs>
				<v:ud v:nameU="visVersion" v:val="VT0(15):26"/>
				<v:ud v:nameU="visMasterStencil" v:prompt="" v:val="VT4(Basic_U.vssx)"/>
			</v:userDefs>
			<v:textBlock v:margins="rect(4,4,4,4)"/>
			<v:textRect cx="45" cy="445.5" width="90" height="27"/>
			<rect x="0" y="432" width="90" height="27" class="st3"/>
			<text x="30.59" y="448.5" class="st4" v:langID="1033"><v:paragraph v:horizAlign="1"/><v:tabList/>Python</text>		</g>
		<g id="shape6-13" v:mID="6" v:groupContext="shape" transform="translate(351,-405)">
			<title>Rectangle.6</title>
			<desc>Other Language</desc>
			<v:userDefs>
				<v:ud v:nameU="visVersion" v:val="VT0(15):26"/>
				<v:ud v:nameU="visMasterStencil" v:prompt="" v:val="VT4(Basic_U.vssx)"/>
			</v:userDefs>
			<v:textBlock v:margins="rect(4,4,4,4)"/>
			<v:textRect cx="45" cy="445.5" width="90" height="27"/>
			<rect x="0" y="432" width="90" height="27" class="st3"/>
			<text x="12.69" y="448.5" class="st4" v:langID="1033"><v:paragraph v:horizAlign="1"/><v:tabList/>Other Language</text>		</g>
		<g id="shape7-16" v:mID="7" v:groupContext="shape" transform="translate(135,-351)">
			<title>Rectangle.7</title>
			<desc>language translation module</desc>
			<v:userDefs>
				<v:ud v:nameU="visVersion" v:val="VT0(15):26"/>
				<v:ud v:nameU="visMasterStencil" v:prompt="" v:val="VT4(Basic_U.vssx)"/>
			</v:userDefs>
			<v:textBlock v:margins="rect(4,4,4,4)"/>
			<v:textRect cx="153" cy="445.5" width="306" height="27"/>
			<rect x="0" y="432" width="306" height="27" class="st5"/>
			<text x="94.81" y="448.5" class="st4" v:langID="1033"><v:paragraph v:horizAlign="1"/><v:tabList/>language translation module</text>		</g>
		<g id="shape8-19" v:mID="8" v:groupContext="shape" transform="translate(39.2308,-288)">
			<title>Rectangle.8</title>
			<desc>libsecret_prov_attest.so</desc>
			<v:userDefs>
				<v:ud v:nameU="visVersion" v:val="VT0(15):26"/>
				<v:ud v:nameU="visMasterStencil" v:prompt="" v:val="VT4(Basic_U.vssx)"/>
			</v:userDefs>
			<v:textBlock v:margins="rect(4,4,4,4)"/>
			<v:textRect cx="63.5913" cy="445.5" width="127.19" height="27"/>
			<rect x="0" y="432" width="127.183" height="27" class="st3"/>
			<text x="14.24" y="448.5" class="st4" v:langID="1033"><v:paragraph v:horizAlign="1"/><v:tabList/>libsecret_prov_attest.so</text>		</g>
		<g id="shape1002-22" v:mID="1002" v:groupContext="shape" transform="translate(295.817,-288)">
			<title>Rectangle.1002</title>
			<desc>libmbedcrypto_gramine.so</desc>
			<v:userDefs>
				<v:ud v:nameU="visVersion" v:val="VT0(15):26"/>
				<v:ud v:nameU="visMasterStencil" v:prompt="" v:val="VT4(Basic_U.vssx)"/>
			</v:userDefs>
			<v:textBlock v:margins="rect(4,4,4,4)"/>
			<v:textRect cx="63.5913" cy="445.5" width="127.19" height="27"/>
			<rect x="0" y="432" width="127.183" height="27" class="st3"/>
			<text x="8.78" y="448.5" class="st4" v:langID="1033"><v:paragraph v:horizAlign="1"/><v:tabList/>libmbedcrypto_gramine.so</text>		</g>
		<g id="shape1003-25" v:mID="1003" v:groupContext="shape" transform="translate(296.409,-256.5)">
			<title>Rectangle.1003</title>
			<desc>libmbedx509_gramine.so</desc>
			<v:userDefs>
				<v:ud v:nameU="visVersion" v:val="VT0(15):26"/>
				<v:ud v:nameU="visMasterStencil" v:prompt="" v:val="VT4(Basic_U.vssx)"/>
			</v:userDefs>
			<v:textBlock v:margins="rect(4,4,4,4)"/>
			<v:textRect cx="63.5913" cy="445.5" width="127.19" height="27"/>
			<rect x="0" y="432" width="127.183" height="27" class="st3"/>
			<text x="12.07" y="448.5" class="st4" v:langID="1033"><v:paragraph v:horizAlign="1"/><v:tabList/>libmbedx509_gramine.so</text>		</g>
		<g id="shape1004-28" v:mID="1004" v:groupContext="shape" transform="translate(296.409,-225)">
			<title>Rectangle.1004</title>
			<desc>libmbedtls_gramine.so</desc>
			<v:userDefs>
				<v:ud v:nameU="visVersion" v:val="VT0(15):26"/>
				<v:ud v:nameU="visMasterStencil" v:prompt="" v:val="VT4(Basic_U.vssx)"/>
			</v:userDefs>
			<v:textBlock v:margins="rect(4,4,4,4)"/>
			<v:textRect cx="63.5913" cy="445.5" width="127.19" height="27"/>
			<rect x="0" y="432" width="127.183" height="27" class="st3"/>
			<text x="17.06" y="448.5" class="st4" v:langID="1033"><v:paragraph v:horizAlign="1"/><v:tabList/>libmbedtls_gramine.so</text>		</g>
		<g id="shape1005-31" v:mID="1005" v:groupContext="shape" transform="translate(39.2308,-256.5)">
			<title>Rectangle.1005</title>
			<desc>libra_tls_attest.so</desc>
			<v:userDefs>
				<v:ud v:nameU="visVersion" v:val="VT0(15):26"/>
				<v:ud v:nameU="visMasterStencil" v:prompt="" v:val="VT4(Basic_U.vssx)"/>
			</v:userDefs>
			<v:textBlock v:margins="rect(4,4,4,4)"/>
			<v:textRect cx="63.5913" cy="445.5" width="127.19" height="27"/>
			<rect x="0" y="432" width="127.183" height="27" class="st3"/>
			<text x="27.06" y="448.5" class="st4" v:langID="1033"><v:paragraph v:horizAlign="1"/><v:tabList/>libra_tls_attest.so</text>		</g>
		<g id="shape1006-34" v:mID="1006" v:groupContext="shape" transform="translate(39.2308,-225)">
			<title>Rectangle.1006</title>
			<desc>libra_tls_verify_dcap.so</desc>
			<v:userDefs>
				<v:ud v:nameU="visVersion" v:val="VT0(15):26"/>
				<v:ud v:nameU="visMasterStencil" v:prompt="" v:val="VT4(Basic_U.vssx)"/>
			</v:userDefs>
			<v:textBlock v:margins="rect(4,4,4,4)"/>
			<v:textRect cx="63.5913" cy="445.5" width="127.19" height="27"/>
			<rect x="0" y="432" width="127.183" height="27" class="st3"/>
			<text x="15.24" y="448.5" class="st4" v:langID="1033"><v:paragraph v:horizAlign="1"/><v:tabList/>libra_tls_verify_dcap.so</text>		</g>
		<g id="shape1007-37" v:mID="1007" v:groupContext="shape" transform="translate(192.594,-225)">
			<title>Rectangle.1007</title>
			<desc>… ...</desc>
			<v:userDefs>
				<v:ud v:nameU="visVersion" v:val="VT0(15):26"/>
				<v:ud v:nameU="visMasterStencil" v:prompt="" v:val="VT4(Basic_U.vssx)"/>
			</v:userDefs>
			<v:textBlock v:margins="rect(4,4,4,4)"/>
			<v:textRect cx="38.8171" cy="445.5" width="77.64" height="27"/>
			<rect x="0" y="432" width="77.6342" height="27" class="st6"/>
			<text x="30.45" y="448.5" class="st4" v:langID="1033"><v:paragraph v:horizAlign="1"/><v:tabList/>… ...</text>		</g>
		<g id="shape1008-40" v:mID="1008" v:groupContext="shape" transform="translate(-36,248.769) rotate(-90) scale(-1,1)">
			<title>Sharp Bent Arrow.1008</title>
			<v:userDefs>
				<v:ud v:nameU="DblArrow" v:prompt="" v:val="VT0(0):5"/>
				<v:ud v:nameU="visVersion" v:prompt="" v:val="VT0(15):26"/>
			</v:userDefs>
			<path d="M0 459 L50.62 459 L50.62 396 L54 396 L47.81 387 L41.62 396 L45 396 L45 453.37 L0 453.37 L0 456.19 L0 459 Z"
					class="st3"/>
		</g>
		<g id="shape1009-42" v:mID="1009" v:groupContext="shape" transform="translate(240.75,-144)">
			<title>Cloud.1009</title>
			<desc>Network</desc>
			<v:userDefs>
				<v:ud v:nameU="solsh"/>
				<v:ud v:nameU="shapetype" v:val="VT0(1):26"/>
				<v:ud v:nameU="shapelook" v:val="VT0(2):26"/>
				<v:ud v:nameU="visVersion" v:val="VT0(15):26"/>
			</v:userDefs>
			<v:textBlock v:margins="rect(0,0,0,0)"/>
			<v:textRect cx="47.25" cy="439.67" width="94.5" height="38.6591"/>
			<path d="M35.1 425.66 A14.9577 9.93592 0 0 1 61.49 425.53 A10.9786 7.29278 0 0 1 80.37 427.95 A11.0413 7.3344 0 0 1 93.41
						 431.64 A8.32897 5.53268 0 0 1 88.98 438.35 A9.40597 6.2481 0 0 1 81.77 449.89 A16.9377 11.2512 0 0 1 58.19
						 455.69 A21.3321 14.1703 0 0 1 28.59 454.28 A11.7395 7.79816 0 0 1 7.94 447.99 A8.48296 5.63497 0 0 1 7.97
						 436.75 A7.25824 4.82143 0 1 1 13.83 427.93 A11.3786 7.55843 0 0 1 35.1 425.66 Z" class="st7"/>
			<text x="33.16" y="442.07" class="st8" v:langID="1033"><v:paragraph v:horizAlign="1"/><v:tabList/>Network</text>		</g>
		<g id="shape1010-45" v:mID="1010" v:groupContext="shape" transform="translate(316.769,-168.154)">
			<title>Sheet.1010</title>
			<desc>TLS</desc>
			<v:textBlock v:margins="rect(4,4,4,4)"/>
			<v:textRect cx="76" cy="449" width="152" height="20"/>
			<rect x="0" y="439" width="152" height="20" class="st9"/>
			<text x="69.16" y="452" class="st4" v:langID="1033"><v:paragraph v:horizAlign="1"/><v:tabList/>TLS</text>		</g>
		<g id="shape1011-48" v:mID="1011" v:groupContext="shape" transform="translate(225,750.692) rotate(180)">
			<title>Sharp Bent Arrow.1011</title>
			<v:userDefs>
				<v:ud v:nameU="DblArrow" v:prompt="" v:val="VT0(0):5"/>
				<v:ud v:nameU="visVersion" v:prompt="" v:val="VT0(15):26"/>
			</v:userDefs>
			<path d="M0 459 L50.62 459 L50.62 432 L54 432 L47.81 423 L41.62 432 L45 432 L45 453.37 L0 453.37 L0 456.19 L0 459 Z"
					class="st3"/>
		</g>
		<g id="shape1012-50" v:mID="1012" v:groupContext="shape" transform="translate(108,-51.75)">
			<title>Left Parenthesis.1012</title>
			<v:userDefs>
				<v:ud v:nameU="visVersion" v:prompt="" v:val="VT0(15):26"/>
				<v:ud v:nameU="visMasterStencil" v:prompt="" v:val="VT4(Basic_U.vssx)"/>
			</v:userDefs>
			<path d="M18 459 A19.2094 9.60469 0 0 1 0 451.8 L0 394.2 A19.2094 9.60469 0 0 1 18 387" class="st10"/>
		</g>
		<g id="shape1013-53" v:mID="1013" v:groupContext="shape" transform="translate(243,-51.75)">
			<title>Right Parenthesis.1013</title>
			<v:userDefs>
				<v:ud v:nameU="visVersion" v:prompt="" v:val="VT0(15):26"/>
				<v:ud v:nameU="visMasterStencil" v:prompt="" v:val="VT4(Basic_U.vssx)"/>
			</v:userDefs>
			<path d="M-0 459 A19.2094 9.60469 -180 0 0 18 451.8 L18 394.2 A19.2094 9.60469 -180 0 0 0 387" class="st10"/>
		</g>
		<g id="shape1014-56" v:mID="1014" v:groupContext="shape" transform="translate(136.969,-51.75)">
			<title>Round Corner Rectangle.1014</title>
			<desc>Party A</desc>
			<v:userDefs>
				<v:ud v:nameU="CTypeTopLeftSnip" v:prompt="" v:val="VT0(0):5"/>
				<v:ud v:nameU="CTypeTopRightSnip" v:prompt="" v:val="VT0(0):5"/>
				<v:ud v:nameU="CTypeBotLeftSnip" v:prompt="" v:val="VT0(0):5"/>
				<v:ud v:nameU="CTypeBotRightSnip" v:prompt="" v:val="VT0(0):5"/>
				<v:ud v:nameU="CornerLockHoriz" v:prompt="" v:val="VT0(0):5"/>
				<v:ud v:nameU="CornerLockVert" v:prompt="" v:val="VT0(0):5"/>
				<v:ud v:nameU="CornerLockDiag" v:prompt="" v:val="VT0(0):5"/>
				<v:ud v:nameU="TopLeftOffset" v:prompt="" v:val="VT0(0.15):1"/>
				<v:ud v:nameU="TopRightOffset" v:prompt="" v:val="VT0(0.15):1"/>
				<v:ud v:nameU="BotLeftOffset" v:prompt="" v:val="VT0(0.15):1"/>
				<v:ud v:nameU="BotRightOffset" v:prompt="" v:val="VT0(0.15):1"/>
				<v:ud v:nameU="visVersion" v:prompt="" v:val="VT0(15):26"/>
				<v:ud v:nameU="visMasterStencil" v:prompt="" v:val="VT4(Basic_U.vssx)"/>
				<v:ud v:nameU="TopLeftOffset" v:prompt="" v:val="VT0(0.044531248366604):1"/>
				<v:ud v:nameU="TopRightOffset" v:prompt="" v:val="VT0(0.044531248366604):1"/>
				<v:ud v:nameU="BotLeftOffset" v:prompt="" v:val="VT0(0.044531248366604):1"/>
				<v:ud v:nameU="BotRightOffset" v:prompt="" v:val="VT0(0.044531248366604):1"/>
			</v:userDefs>
			<v:textBlock v:margins="rect(4,4,4,4)"/>
			<v:textRect cx="16.0312" cy="423" width="32.07" height="72"/>
			<path d="M3.21 459 L28.86 459 A3.2062 3.2062 -180 0 0 32.06 455.79 L32.06 390.21 A3.2062 3.2062 -180 0 0 28.86 387 L3.21
						 387 A3.2062 3.2062 -180 0 0 -0 390.21 L0 455.79 A3.2062 3.2062 -180 0 0 3.21 459 Z" class="st3"/>
			<text x="5.37" y="420" class="st4" v:langID="1033"><v:paragraph v:horizAlign="1"/><v:tabList/>Party <tspan x="13.14"
						dy="1.2em" class="st11">A</tspan></text>		</g>
		<g id="shape1015-60" v:mID="1015" v:groupContext="shape" transform="translate(181.969,-51.75)">
			<title>Round Corner Rectangle.1015</title>
			<desc>Party B</desc>
			<v:userDefs>
				<v:ud v:nameU="CTypeTopLeftSnip" v:prompt="" v:val="VT0(0):5"/>
				<v:ud v:nameU="CTypeTopRightSnip" v:prompt="" v:val="VT0(0):5"/>
				<v:ud v:nameU="CTypeBotLeftSnip" v:prompt="" v:val="VT0(0):5"/>
				<v:ud v:nameU="CTypeBotRightSnip" v:prompt="" v:val="VT0(0):5"/>
				<v:ud v:nameU="CornerLockHoriz" v:prompt="" v:val="VT0(0):5"/>
				<v:ud v:nameU="CornerLockVert" v:prompt="" v:val="VT0(0):5"/>
				<v:ud v:nameU="CornerLockDiag" v:prompt="" v:val="VT0(0):5"/>
				<v:ud v:nameU="TopLeftOffset" v:prompt="" v:val="VT0(0.15):1"/>
				<v:ud v:nameU="TopRightOffset" v:prompt="" v:val="VT0(0.15):1"/>
				<v:ud v:nameU="BotLeftOffset" v:prompt="" v:val="VT0(0.15):1"/>
				<v:ud v:nameU="BotRightOffset" v:prompt="" v:val="VT0(0.15):1"/>
				<v:ud v:nameU="visVersion" v:prompt="" v:val="VT0(15):26"/>
				<v:ud v:nameU="visMasterStencil" v:prompt="" v:val="VT4(Basic_U.vssx)"/>
				<v:ud v:nameU="TopLeftOffset" v:prompt="" v:val="VT0(0.044531248366604):1"/>
				<v:ud v:nameU="TopRightOffset" v:prompt="" v:val="VT0(0.044531248366604):1"/>
				<v:ud v:nameU="BotLeftOffset" v:prompt="" v:val="VT0(0.044531248366604):1"/>
				<v:ud v:nameU="BotRightOffset" v:prompt="" v:val="VT0(0.044531248366604):1"/>
			</v:userDefs>
			<v:textBlock v:margins="rect(4,4,4,4)"/>
			<v:textRect cx="16.0312" cy="423" width="32.07" height="72"/>
			<path d="M3.21 459 L28.86 459 A3.2062 3.2062 -180 0 0 32.06 455.79 L32.06 390.21 A3.2062 3.2062 -180 0 0 28.86 387 L3.21
						 387 A3.2062 3.2062 -180 0 0 -0 390.21 L0 455.79 A3.2062 3.2062 -180 0 0 3.21 459 Z" class="st3"/>
			<text x="5.37" y="420" class="st4" v:langID="1033"><v:paragraph v:horizAlign="1"/><v:tabList/>Party <tspan x="13.31"
						dy="1.2em" class="st11">B</tspan></text>		</g>
		<g id="shape1016-64" v:mID="1016" v:groupContext="shape" transform="translate(225,-76.5)">
			<title>Rectangle.1016</title>
			<desc>… ...</desc>
			<v:userDefs>
				<v:ud v:nameU="visVersion" v:val="VT0(15):26"/>
				<v:ud v:nameU="visMasterStencil" v:prompt="" v:val="VT4(Basic_U.vssx)"/>
			</v:userDefs>
			<v:textBlock v:margins="rect(4,4,4,4)"/>
			<v:textRect cx="16.0312" cy="445.5" width="32.07" height="27"/>
			<rect x="0" y="432" width="32.0625" height="27" class="st6"/>
			<text x="7.66" y="448.5" class="st4" v:langID="1033"><v:paragraph v:horizAlign="1"/><v:tabList/>… ...</text>		</g>
		<g id="shape1017-67" v:mID="1017" v:groupContext="shape" transform="translate(109,-25)">
			<title>Sheet.1017</title>
			<desc>Multi-party Computation</desc>
			<v:textBlock v:margins="rect(4,4,4,4)"/>
			<v:textRect cx="76" cy="449" width="152" height="20"/>
			<rect x="0" y="439" width="152" height="20" class="st9"/>
			<text x="14.87" y="452.6" class="st12" v:langID="1033"><v:paragraph v:horizAlign="1"/><v:tabList/>Multi-party Computation</text>		</g>
	</g>
</svg>
