<svg width="1280" height="720" xmlns="http://www.w3.org/2000/svg" xmlns:xlink="http://www.w3.org/1999/xlink" overflow="hidden"><defs><clipPath id="clip0"><rect x="0" y="0" width="1280" height="720"/></clipPath></defs><g clip-path="url(#clip0)"><rect x="0" y="0" width="1280" height="720" fill="#FFFFFF"/><rect x="42.5001" y="312.5" width="237" height="354" stroke="#2F528F" stroke-width="1.33333" stroke-miterlimit="8" fill="#4472C4"/><rect x="51.5001" y="349.5" width="219" height="159" stroke="#000000" stroke-width="1.33333" stroke-miterlimit="8" fill="#FFFFFF"/><rect x="171.5" y="539.5" width="45" height="115" stroke="#2F528F" stroke-width="1.33333" stroke-miterlimit="8" fill="#4472C4"/><text font-family="Calibri,Calibri_MSFontService,sans-serif" font-weight="400" font-size="16" transform="matrix(6.12323e-17 1 -1 6.12323e-17 197.677 548)">Encryption <tspan font-size="16" x="-1.16341e-15" y="19">Key</tspan></text><rect x="223.5" y="538.5" width="45" height="117" stroke="#2F528F" stroke-width="1.33333" stroke-miterlimit="8" fill="#4472C4"/><text font-family="Calibri,Calibri_MSFontService,sans-serif" font-weight="400" font-size="16" transform="matrix(6.12323e-17 1 -1 6.12323e-17 250.077 548)">Encrypted <tspan font-size="16" x="-1.16341e-15" y="19">Data</tspan></text><path d="M164.167 445.5 164.167 486.833 162.833 486.833 162.833 445.5ZM167.5 485.5 163.5 493.5 159.5 485.5Z" fill="#2F528F"/><rect x="118.5" y="403.5" width="95" height="36" stroke="#2F528F" stroke-width="1.33333" stroke-miterlimit="8" fill="#4472C4"/><text font-family="Calibri,Calibri_MSFontService,sans-serif" font-weight="400" font-size="16" transform="translate(134.896 417)">signature <tspan font-size="16" x="-6.21333" y="19">verification</tspan></text><rect x="50.5001" y="511.5" width="219" height="24" stroke="#000000" stroke-width="1.33333" stroke-miterlimit="8" fill="#ED7D31"/><text font-family="Calibri,Calibri_MSFontService,sans-serif" font-weight="400" font-size="16" transform="translate(123.673 528)">File system</text><rect x="448.5" y="106.5" width="414" height="570" stroke="#507E32" stroke-width="1.33333" stroke-miterlimit="8" fill="#70AD47"/><rect x="462.5" y="169.5" width="387" height="477" stroke="#000000" stroke-width="1.33333" stroke-miterlimit="8" fill="#FFFFFF"/><text fill="#FFFFFF" font-family="Calibri,Calibri_MSFontService,sans-serif" font-weight="400" font-size="24" transform="translate(639.538 415)">②</text><rect x="979.5" y="490.5" width="237" height="84" stroke="#000000" stroke-width="1.33333" stroke-miterlimit="8" fill="#FFFFFF"/><text font-family="Calibri,Calibri_MSFontService,sans-serif" font-weight="400" font-size="24" transform="translate(1065.72 525)">User C<tspan font-size="24" x="-24.5" y="29">(same </tspan><tspan font-size="24" x="40.3334" y="29">as A</tspan><tspan font-size="24" x="80.5" y="29">)</tspan><tspan font-size="24" x="-589.185" y="-380">Central node </tspan><tspan font-size="16" x="-458.065" y="-380">with </tspan><tspan font-size="16" x="-425.565" y="-380">SGX enabled</tspan></text><path d="M476.536 148.299 537.786 148.299 599.036 148.299 660.286 148.299 721.536 148.299 721.536 149.299 660.286 149.299 599.036 149.299 537.786 149.299 476.536 149.299Z" fill-rule="evenodd"/><text font-family="Calibri,Calibri_MSFontService,sans-serif" font-weight="400" font-size="24" transform="translate(476.41 204)">Enclave</text><rect x="522.5" y="213.5" width="258" height="47" stroke="#000000" stroke-width="1.33333" stroke-miterlimit="8" fill="#FFFFFF"/><text font-family="Calibri,Calibri_MSFontService,sans-serif" font-weight="400" font-size="19" transform="translate(616.232 236)">User App<tspan font-size="11" x="-25.2534" y="15">Java, Python, go, rust, C#, …</tspan></text><path d="M590.565 251.92 630.898 251.92 671.232 251.92 711.565 251.92 711.565 252.92 671.232 252.92 630.898 252.92 590.565 252.92Z" fill-rule="evenodd"/><rect x="303.5" y="389.5" width="105" height="20" stroke="#FFFFFF" stroke-width="1.33333" stroke-miterlimit="8" fill="#FFFFFF"/><text font-family="Calibri,Calibri_MSFontService,sans-serif" font-weight="400" font-size="19" transform="translate(319.834 404)">signature</text><rect x="522.5" y="287.5" width="25" height="96" stroke="#000000" stroke-width="1.33333" stroke-miterlimit="8" fill="#FFFFFF"/><text font-family="Calibri,Calibri_MSFontService,sans-serif" font-weight="400" font-size="16" transform="matrix(6.12323e-17 1 -1 6.12323e-17 529.106 317)">Java <tspan font-size="16" x="31" y="1.8982e-15">-</tspan><tspan font-size="16" x="36" y="2.20436e-15">&gt; C</tspan></text><rect x="502.5" y="395.5" width="311" height="146" stroke="#000000" stroke-width="1.33333" stroke-miterlimit="8" fill="#FFFFFF"/><rect x="619.5" y="416.5" width="180" height="35" stroke="#000000" stroke-width="1.33333" stroke-miterlimit="8" fill="#FFFFFF"/><text font-family="Calibri,Calibri_MSFontService,sans-serif" font-weight="400" font-size="16" transform="translate(679.79 439)">Key Retrieval API</text><rect x="619.5" y="456.5" width="180" height="35" stroke="#000000" stroke-width="1.33333" stroke-miterlimit="8" fill="#FFFFFF"/><text font-family="Calibri,Calibri_MSFontService,sans-serif" font-weight="400" font-size="16" transform="translate(679.103 479)">Data transfer API</text><rect x="619.5" y="496.5" width="180" height="35" stroke="#000000" stroke-width="1.33333" stroke-miterlimit="8" fill="#FFFFFF"/><text font-family="Calibri,Calibri_MSFontService,sans-serif" font-weight="400" font-size="16" transform="translate(635.823 519)">Result Transmission API</text><path d="M236.5 423.75 462 423.75 462 416.5 476.5 431 462 445.5 462 438.25 236.5 438.25Z" stroke="#787878" stroke-width="1.33333" stroke-miterlimit="8" fill="#A5A5A5" fill-rule="evenodd"/><text fill="#FFFFFF" font-family="Calibri,Calibri_MSFontService,sans-serif" font-weight="400" font-size="16" transform="translate(273.952 436)">Secure Key transmission</text><path d="M235.942 452.423 461.542 452.634 461.549 445.435 475.935 459.848 461.522 474.234 461.528 467.034 235.929 466.823Z" stroke="#787878" stroke-width="1.33333" stroke-miterlimit="8" fill="#A5A5A5" fill-rule="evenodd"/><text fill="#FFFFFF" font-family="Calibri,Calibri_MSFontService,sans-serif" font-weight="400" font-size="16" transform="matrix(1 0.000938114 -0.000938114 1 260.33 465)">Encrypted data transmission</text><path d="M236.5 489.5 250.5 475.5 250.5 482.5 476.5 482.5 476.5 496.5 250.5 496.5 250.5 503.5Z" stroke="#787878" stroke-width="1.33333" stroke-miterlimit="8" fill="#A5A5A5" fill-rule="evenodd"/><text fill="#FFFFFF" font-family="Calibri,Calibri_MSFontService,sans-serif" font-weight="400" font-size="16" transform="translate(304.912 494)">Encrypted Result</text><path d="M828.5 445.5 852.5 421.5 852.5 433.5 953.5 433.5 953.5 457.5 852.5 457.5 852.5 469.5Z" stroke="#787878" stroke-width="1.33333" stroke-miterlimit="8" fill="#A5A5A5" fill-rule="evenodd"/><text fill="#FFFFFF" font-family="Calibri,Calibri_MSFontService,sans-serif" font-weight="400" font-size="11" transform="translate(873.144 442)">Secure key <tspan font-size="11" x="-5.16669" y="13">Transmission</tspan></text><path d="M827.5 496.5 851.5 472.5 851.5 482.906 951.5 482.906 951.5 510.095 851.5 510.095 851.5 520.5Z" stroke="#787878" stroke-width="1.33333" stroke-miterlimit="8" fill="#A5A5A5" fill-rule="evenodd"/><text fill="#FFFFFF" font-family="Calibri,Calibri_MSFontService,sans-serif" font-weight="400" font-size="11" transform="translate(862.977 493)">Encrypted data <tspan font-size="11" x="5.25336" y="13">transmission</tspan></text><path d="M828.5 527.5 929.5 527.5 929.5 515.5 953.5 539.5 929.5 563.5 929.5 551.5 828.5 551.5Z" stroke="#787878" stroke-width="1.33333" stroke-miterlimit="8" fill="#A5A5A5" fill-rule="evenodd"/><text fill="#FFFFFF" font-family="Calibri,Calibri_MSFontService,sans-serif" font-weight="400" font-size="11" transform="translate(847.81 543)">Encrypted Result</text><rect x="663.5" y="551.5" width="150" height="35" stroke="#000000" stroke-width="1.33333" stroke-miterlimit="8" fill="#FFFFFF"/><text font-family="Calibri,Calibri_MSFontService,sans-serif" font-weight="400" font-size="19" transform="translate(683.362 575)">Encrypt Result</text><path d="M534.833 265.5 534.833 278.033 534.167 278.033 534.167 265.5ZM538.5 276.7 534.5 284.7 530.5 276.7Z" fill="#4472C4"/><rect x="502.5" y="599.5" width="311" height="35" stroke="#000000" stroke-width="1.33333" stroke-miterlimit="8" fill="#FFFFFF"/><text font-family="Calibri,Calibri_MSFontService,sans-serif" font-weight="400" font-size="19" transform="translate(569.73 622)">Customer-<tspan font-size="19" x="79.28" y="0">specific logic</tspan><tspan font-size="24" x="-517.955" y="-566">Cross languages framework based on Gramine</tspan></text><rect x="568.5" y="287.5" width="26" height="96" stroke="#000000" stroke-width="1.33333" stroke-miterlimit="8" fill="#FFFFFF"/><text font-family="Calibri,Calibri_MSFontService,sans-serif" font-weight="400" font-size="16" transform="matrix(6.12323e-17 1 -1 6.12323e-17 575.57 298)">Python <tspan font-size="16" x="50" y="3.06162e-15">-</tspan><tspan font-size="16" x="55" y="3.36778e-15">&gt; C</tspan></text><rect x="615.5" y="287.5" width="25" height="96" stroke="#000000" stroke-width="1.33333" stroke-miterlimit="8" fill="#FFFFFF"/><text font-family="Calibri,Calibri_MSFontService,sans-serif" font-weight="400" font-size="16" transform="matrix(6.12323e-17 1 -1 6.12323e-17 622.034 325)">Go <tspan font-size="16" x="23" y="1.40834e-15">-</tspan><tspan font-size="16" x="28" y="1.71451e-15">&gt; C</tspan></text><rect x="661.5" y="287.5" width="26" height="96" stroke="#000000" stroke-width="1.33333" stroke-miterlimit="8" fill="#FFFFFF"/><text font-family="Calibri,Calibri_MSFontService,sans-serif" font-weight="400" font-size="16" transform="matrix(6.12323e-17 1 -1 6.12323e-17 668.498 316)">Rust <tspan font-size="16" x="32" y="1.95943e-15">-</tspan><tspan font-size="16" x="37" y="2.2656e-15">&gt; C</tspan></text><rect x="707.5" y="287.5" width="26" height="96" stroke="#000000" stroke-width="1.33333" stroke-miterlimit="8" fill="#FFFFFF"/><text font-family="Calibri,Calibri_MSFontService,sans-serif" font-weight="400" font-size="16" transform="matrix(6.12323e-17 1 -1 6.12323e-17 714.962 328)">C# <tspan font-size="16" x="20" y="1.22465e-15">-</tspan><tspan font-size="16" x="25" y="1.53081e-15">&gt; C</tspan></text><rect x="754.5" y="287.5" width="26" height="96" stroke="#000000" stroke-width="1.33333" stroke-miterlimit="8" fill="#FFFFFF"/><text font-family="Calibri,Calibri_MSFontService,sans-serif" font-weight="400" font-size="16" transform="matrix(6.12323e-17 1 -1 6.12323e-17 761.426 306)">Other <tspan font-size="16" x="42" y="2.57176e-15">-</tspan><tspan font-size="16" x="47" y="2.87792e-15">&gt; C</tspan></text><text font-family="Calibri,Calibri_MSFontService,sans-serif" font-weight="400" font-size="19" transform="translate(508.234 418)">clf_client Lib</text><text font-family="Calibri,Calibri_MSFontService,sans-serif" font-weight="400" font-size="24" transform="matrix(6.12323e-17 1 -1 6.12323e-17 746.262 326)">…<tspan font-size="24" x="149" y="197.248">…</tspan></text><path d="M581.833 265.5 581.833 278.033 581.167 278.033 581.167 265.5ZM585.5 276.7 581.5 284.7 577.5 276.7Z" fill="#4472C4"/><path d="M628.833 265.5 628.833 278.033 628.167 278.033 628.167 265.5ZM632.5 276.7 628.5 284.7 624.5 276.7Z" fill="#4472C4"/><path d="M674.833 265.5 674.833 278.033 674.167 278.033 674.167 265.5ZM678.5 276.7 674.5 284.7 670.5 276.7Z" fill="#4472C4"/><path d="M721.833 265.5 721.833 278.033 721.167 278.033 721.167 265.5ZM725.5 276.7 721.5 284.7 717.5 276.7Z" fill="#4472C4"/><path d="M768.833 265.5 768.833 278.033 768.167 278.033 768.167 265.5ZM772.5 276.7 768.5 284.7 764.5 276.7Z" fill="#4472C4"/><text font-family="Calibri,Calibri_MSFontService,sans-serif" font-weight="400" font-size="24" transform="translate(59.6303 377)">clf_server</text><rect x="51.5001" y="538.5" width="112" height="29" stroke="#2F528F" stroke-width="1.33333" stroke-miterlimit="8" fill="#4472C4"/><text font-family="Calibri,Calibri_MSFontService,sans-serif" font-weight="400" font-size="16" transform="translate(60.6806 558)">configuration</text><path d="M58.5 582.5C58.5 579.739 58.8731 577.5 59.3333 577.5L105.667 577.5C106.127 577.5 106.5 575.261 106.5 572.5 106.5 575.261 106.873 577.5 107.333 577.5L153.667 577.5C154.127 577.5 154.5 579.739 154.5 582.5" stroke="#A5A5A5" stroke-width="0.666667" stroke-miterlimit="8" fill="none" fill-rule="evenodd"/><text font-family="Calibri,Calibri_MSFontService,sans-serif" font-weight="400" font-size="24" transform="translate(57.1367 338)">User A</text><rect x="502.5" y="551.5" width="150" height="35" stroke="#000000" stroke-width="1.33333" stroke-miterlimit="8" fill="#FFFFFF"/><text font-family="Calibri,Calibri_MSFontService,sans-serif" font-weight="400" font-size="19" transform="translate(527.337 575)">Decrypt Data<tspan font-size="11" x="-459.672" y="22">MREnclave</tspan><tspan font-size="11" x="-459.672" y="35">MRSigner</tspan><tspan font-size="11" x="-459.672" y="48">ISV_PROD_ID</tspan><tspan font-size="11" x="-459.672" y="60">ISV_SVN</tspan><tspan font-size="11" x="-459.672" y="73">Data Dir</tspan></text><rect x="979.5" y="392.5" width="237" height="84" stroke="#000000" stroke-width="1.33333" stroke-miterlimit="8" fill="#FFFFFF"/><text font-family="Calibri,Calibri_MSFontService,sans-serif" font-weight="400" font-size="24" transform="translate(1065.64 427)">User B<tspan font-size="24" x="-24.42" y="29">(same </tspan><tspan font-size="24" x="40.4133" y="29">as A</tspan><tspan font-size="24" x="80.58" y="29">)</tspan><tspan font-size="24" x="-580.859" y="-145">①</tspan><tspan font-size="24" x="-510.014" y="38">②</tspan><tspan font-size="24" x="-858.863" y="27">③</tspan></text><path d="M605.5 482.5C602.739 482.5 600.5 482.127 600.5 481.667L600.5 456.833C600.5 456.373 598.261 456 595.5 456 598.261 456 600.5 455.627 600.5 455.167L600.5 430.333C600.5 429.873 602.739 429.5 605.5 429.5" stroke="#A5A5A5" stroke-width="0.666667" stroke-miterlimit="8" fill="none" fill-rule="evenodd"/><rect x="522.5" y="287.5" width="25" height="8" stroke="#000000" stroke-width="1.33333" stroke-miterlimit="8" fill="#ED7D31"/><rect x="568.5" y="287.5" width="26" height="8" stroke="#000000" stroke-width="1.33333" stroke-miterlimit="8" fill="#ED7D31"/><rect x="615.5" y="287.5" width="25" height="8" stroke="#000000" stroke-width="1.33333" stroke-miterlimit="8" fill="#ED7D31"/><rect x="661.5" y="287.5" width="26" height="8" stroke="#000000" stroke-width="1.33333" stroke-miterlimit="8" fill="#ED7D31"/><rect x="707.5" y="287.5" width="26" height="8" stroke="#000000" stroke-width="1.33333" stroke-miterlimit="8" fill="#ED7D31"/><rect x="754.5" y="287.5" width="26" height="8" stroke="#000000" stroke-width="1.33333" stroke-miterlimit="8" fill="#ED7D31"/><path d="M476.5 413.167 471.167 413.167 471.167 411.833 476.5 411.833ZM467.167 413.167 461.833 413.167 461.833 411.833 467.167 411.833ZM457.833 413.167 452.5 413.167 452.5 411.833 457.833 411.833ZM448.5 413.167 443.167 413.167 443.167 411.833 448.5 411.833ZM439.167 413.167 433.833 413.167 433.833 411.833 439.167 411.833ZM429.833 413.167 424.5 413.167 424.5 411.833 429.833 411.833ZM420.5 413.167 415.167 413.167 415.167 411.833 420.5 411.833ZM411.167 413.167 405.833 413.167 405.833 411.833 411.167 411.833ZM401.833 413.167 396.5 413.167 396.5 411.833 401.833 411.833ZM392.5 413.167 387.167 413.167 387.167 411.833 392.5 411.833ZM383.167 413.167 377.833 413.167 377.833 411.833 383.167 411.833ZM373.833 413.167 368.5 413.167 368.5 411.833 373.833 411.833ZM364.5 413.167 359.167 413.167 359.167 411.833 364.5 411.833ZM355.167 413.167 349.833 413.167 349.833 411.833 355.167 411.833ZM345.833 413.167 340.5 413.167 340.5 411.833 345.833 411.833ZM336.5 413.167 331.167 413.167 331.167 411.833 336.5 411.833ZM327.167 413.167 321.833 413.167 321.833 411.833 327.167 411.833ZM317.833 413.167 312.5 413.167 312.5 411.833 317.833 411.833ZM308.5 413.167 303.167 413.167 303.167 411.833 308.5 411.833ZM299.167 413.167 293.833 413.167 293.833 411.833 299.167 411.833ZM289.833 413.167 284.5 413.167 284.5 411.833 289.833 411.833ZM280.5 413.167 275.167 413.167 275.167 411.833 280.5 411.833ZM271.167 413.167 265.833 413.167 265.833 411.833 271.167 411.833ZM261.833 413.167 256.5 413.167 256.5 411.833 261.833 411.833ZM252.5 413.167 247.167 413.167 247.167 411.833 252.5 411.833ZM244.5 416.5 236.5 412.5 244.5 408.5Z" fill="#2F528F"/><rect x="63.5001" y="586.5" width="84" height="53" stroke="#000000" stroke-linejoin="round" stroke-miterlimit="10" stroke-dasharray="4 3" fill="none"/><text font-family="Calibri,Calibri_MSFontService,sans-serif" font-weight="700" font-size="16" transform="translate(915.787 158)">Language translation layer<tspan font-weight="400" font-size="15" x="0" y="18">-</tspan><tspan font-weight="400" font-size="15" x="18" y="18">upper edge:</tspan><tspan font-weight="400" font-size="15" x="93.3333" y="18">receive client app non</tspan><tspan font-weight="400" font-size="15" x="224.667" y="18">-</tspan><tspan font-weight="400" font-size="15" x="229.167" y="18">c invocation</tspan><tspan font-weight="400" font-size="15" x="0" y="36">-</tspan><tspan font-weight="400" font-size="15" x="18" y="36">bottom edge:</tspan><tspan font-weight="400" font-size="15" x="102.167" y="36">invoke the common client module </tspan><tspan font-weight="400" font-size="15" x="18" y="53">clf_client to do the real functionality</tspan><tspan font-weight="400" font-size="24" x="-822.436" y="321">④</tspan><tspan font-weight="400" font-size="24" x="-278.542" y="439">⑤</tspan><tspan font-weight="400" font-size="24" x="-499.389" y="339">⑥</tspan><tspan font-weight="400" font-size="24" x="-697.143" y="375">⑦</tspan></text><path d="M87.1674 538.273 87.7314 529.688 89.4276 521.333 92.0659 513.543 95.4609 506.502 99.4864 500.652 101.699 498.124 103.978 496.035 106.388 494.322 108.81 493.048 111.309 492.279 113.842 492.025 116.342 491.775 116.277 491.788 118.715 491.038 118.657 491.062 121.032 489.812 120.994 489.835 123.369 488.148 123.337 488.174 125.587 486.111 125.564 486.134 127.752 483.697 127.725 483.732 131.725 477.857 131.7 477.899 135.075 470.961 135.059 471 137.684 463.25 137.673 463.291 139.361 454.978 139.355 455.023 139.48 453.112 140.146 453.156 140.019 455.089 138.323 463.444 135.684 471.234 132.289 478.212 128.263 484.126 126.05 486.592 123.773 488.679 121.362 490.392 118.94 491.666 116.441 492.435 113.908 492.689 111.408 492.939 111.473 492.926 109.036 493.676 109.093 493.652 106.718 494.902 106.756 494.879 104.381 496.566 104.413 496.54 102.163 498.603 102.188 498.577 100.001 501.077 100.025 501.046 96.0247 506.858 96.0503 506.814 92.6753 513.814 92.6908 513.776 90.0658 521.526 90.0767 521.486 88.3892 529.798 88.3952 529.754 87.8327 538.316ZM135.734 454.203 140.25 446.482 143.717 454.727Z" fill="#4472C4"/><text font-family="Calibri,Calibri_MSFontService,sans-serif" font-weight="400" font-size="24" transform="translate(583.193 669)">Based on Gramine</text><rect x="512.5" y="282.5" width="278" height="105" stroke="#000000" stroke-linejoin="round" stroke-miterlimit="10" stroke-dasharray="4 3" fill="none"/><path d="M809.5 331.5C824.167 284.438 838.833 237.376 851.5 214.709 864.167 192.042 879.333 198.445 885.5 195.5" stroke="#000000" stroke-width="1.33333" stroke-miterlimit="8" fill="none" fill-rule="evenodd"/><text font-family="Calibri,Calibri_MSFontService,sans-serif" font-weight="700" font-size="16" transform="translate(915.607 249)">Common library <tspan font-size="16" x="110.887" y="0">–</tspan><tspan font-size="16" x="122.553" y="0">clf_client</tspan><tspan font-weight="400" font-size="15" x="0" y="18">-</tspan><tspan font-weight="400" font-size="15" x="18" y="18">Provide three types of function (get key/get </tspan><tspan font-weight="400" font-size="15" x="18" y="36">data/push result)</tspan><tspan font-weight="400" font-size="15" x="0" y="53">-</tspan><tspan font-weight="400" font-size="15" x="18" y="53">Connect to clf_server via TLS channel</tspan></text><path d="M827.5 404.5C841.667 367.036 855.833 329.573 867.5 311.239 879.167 292.906 892.833 297.423 897.5 294.5" stroke="#000000" stroke-width="1.33333" stroke-miterlimit="8" fill="none" fill-rule="evenodd"/></g></svg>