<?xml version="1.0" encoding="UTF-8" standalone="no"?>
<!DOCTYPE svg PUBLIC "-//W3C//DTD SVG 1.1//EN" "http://www.w3.org/Graphics/SVG/1.1/DTD/svg11.dtd">
<!-- Generated by Microsoft Visio, SVG Export tls-v13-handshake.svg Page-1 -->
<svg xmlns="http://www.w3.org/2000/svg" xmlns:xlink="http://www.w3.org/1999/xlink" xmlns:ev="http://www.w3.org/2001/xml-events"
		xmlns:v="http://schemas.microsoft.com/visio/2003/SVGExtensions/" width="8.41667in" height="5.69792in"
		viewBox="0 0 606 410.25" xml:space="preserve" color-interpolation-filters="sRGB" class="st16">
	<v:documentProperties v:langID="1033" v:viewMarkup="false"/>

	<style type="text/css">
	<![CDATA[
		.st1 {fill:#ffffff;stroke:#ffffff;stroke-linecap:round;stroke-linejoin:round;stroke-width:0.75}
		.st2 {stroke:#000000;stroke-linecap:round;stroke-linejoin:round;stroke-width:1}
		.st3 {fill:#000000;font-family:Times New Roman;font-size:0.666664em}
		.st4 {font-size:1em}
		.st5 {fill:#000000;font-family:Times New Roman;font-size:0.833336em;font-weight:bold}
		.st6 {fill:none;stroke:none;stroke-linecap:round;stroke-linejoin:round;stroke-width:0.75}
		.st7 {fill:#000000;font-family:Calibri;font-size:1.00001em}
		.st8 {font-family:SimSun;font-size:1em}
		.st9 {fill:#ffffff;stroke:#000000;stroke-linecap:round;stroke-linejoin:round;stroke-width:1}
		.st10 {font-family:SimSun;font-size:1.33332em}
		.st11 {fill:#000000;font-family:Calibri;font-size:0.666664em}
		.st12 {marker-end:url(#mrkr4-106);stroke:#000000;stroke-dasharray:7,5;stroke-linecap:round;stroke-linejoin:round;stroke-width:1}
		.st13 {fill:#000000;fill-opacity:1;stroke:#000000;stroke-opacity:1;stroke-width:0.28409090909091}
		.st14 {marker-end:url(#mrkr4-106);stroke:#000000;stroke-linecap:round;stroke-linejoin:round;stroke-width:1}
		.st15 {marker-end:url(#mrkr4-106);marker-start:url(#mrkr4-137);stroke:#000000;stroke-linecap:round;stroke-linejoin:round;stroke-width:1}
		.st16 {fill:none;fill-rule:evenodd;font-size:12px;overflow:visible;stroke-linecap:square;stroke-miterlimit:3}
	]]>
	</style>

	<defs id="Markers">
		<g id="lend4">
			<path d="M 2 1 L 0 0 L 2 -1 L 2 1 " style="stroke:none"/>
		</g>
		<marker id="mrkr4-106" class="st13" v:arrowType="4" v:arrowSize="2" v:setback="7.04" refX="-7.04" orient="auto"
				markerUnits="strokeWidth" overflow="visible">
			<use xlink:href="#lend4" transform="scale(-3.52,-3.52) "/>
		</marker>
		<marker id="mrkr4-137" class="st13" v:arrowType="4" v:arrowSize="2" v:setback="6.68" refX="6.68" orient="auto"
				markerUnits="strokeWidth" overflow="visible">
			<use xlink:href="#lend4" transform="scale(3.52) "/>
		</marker>
	</defs>
	<g v:mID="0" v:index="1" v:groupContext="foregroundPage">
		<title>Page-1</title>
		<v:pageProperties v:drawingScale="1" v:pageScale="1" v:drawingUnits="19" v:shadowOffsetX="9" v:shadowOffsetY="-9"/>
		<g id="shape927-1" v:mID="927" v:groupContext="shape" transform="translate(0.375,-0.375)">
			<title>Sheet.927</title>
			<rect x="0" y="0.75" width="605.25" height="409.5" class="st1"/>
		</g>
		<g id="shape928-3" v:mID="928" v:groupContext="shape" transform="translate(173.82,-292.875)">
			<title>Sheet.928</title>
			<desc>Client hello - Version - Random - Cipher Suites - Extension</desc>
			<v:textBlock v:margins="rect(2,2,2,2)"/>
			<v:textRect cx="42.1875" cy="384.211" width="84.38" height="52.0777"/>
			<path d="M0 358.17 L84.37 358.17 L84.37 410.25 L0 410.25 L0 358.17" class="st2"/>
			<text x="2" y="367.41" class="st3" v:langID="2052"><v:paragraph/><v:tabList/>Client hello<v:lf/><tspan x="2" dy="1.2em"
						class="st4">-</tspan> Version<v:newlineChar/><tspan x="2" dy="1.2em" class="st4">-</tspan> Random<v:newlineChar/><tspan
						x="2" dy="1.2em" class="st4">-</tspan> Cipher Suites<v:newlineChar/><tspan x="2" dy="1.2em" class="st4">-</tspan> Extension</text>		</g>
		<g id="shape929-11" v:mID="929" v:groupContext="shape" transform="translate(160.24,-9.375)">
			<title>Sheet.929</title>
			<desc>Client</desc>
			<v:textBlock v:margins="rect(2,2,2,2)" v:verticalAlign="0"/>
			<v:textRect cx="55.7674" cy="225.241" width="111.54" height="370.019"/>
			<path d="M0 40.23 L111.53 40.23 L111.53 410.25 L0 410.25 L0 40.23" class="st2"/>
			<text x="42.71" y="63.23" class="st5" v:langID="2052"><v:paragraph v:horizAlign="1"/><v:tabList/><v:lf/>Client</text>		</g>
		<g id="shape933-15" v:mID="933" v:groupContext="shape" transform="translate(350.653,-250.125)">
			<title>Sheet.933</title>
			<desc>Server hello - Version - Random - Cipher Suite</desc>
			<v:textBlock v:margins="rect(2,2,2,2)"/>
			<v:textRect cx="42.1875" cy="388.875" width="84.38" height="42.75"/>
			<path d="M0 367.5 L84.37 367.5 L84.37 410.25 L0 410.25 L0 367.5" class="st2"/>
			<text x="2" y="376.87" class="st3" v:langID="2052"><v:paragraph/><v:tabList/>Server hello<v:lf/><tspan x="2" dy="1.2em"
						class="st4">-</tspan> Version<v:newlineChar/><tspan x="2" dy="1.2em" class="st4">-</tspan> Random<v:lf/><tspan
						x="2" dy="1.2em" class="st4">-</tspan> Cipher Suite</text>		</g>
		<g id="shape942-22" v:mID="942" v:groupContext="shape" transform="translate(338.438,-9.375)">
			<title>Sheet.942</title>
			<desc>Server</desc>
			<v:textBlock v:margins="rect(2,2,2,2)" v:verticalAlign="0"/>
			<v:textRect cx="55.7674" cy="225.241" width="111.54" height="370.019"/>
			<path d="M0 40.23 L111.53 40.23 L111.53 410.25 L0 410.25 L0 40.23" class="st2"/>
			<text x="41.61" y="63.23" class="st5" v:langID="2052"><v:paragraph v:horizAlign="1"/><v:tabList/><v:lf/>Server</text>		</g>
		<g id="shape981-26" v:mID="981" v:groupContext="shape" transform="translate(218.625,-384.144)">
			<title>Sheet.981</title>
			<desc>Two-Way TLS 1.3 Handshake</desc>
			<v:textBlock v:margins="rect(4,4,4,4)"/>
			<v:textRect cx="84.125" cy="400.25" width="168.25" height="20"/>
			<rect x="0" y="390.25" width="168.25" height="20" class="st6"/>
			<text x="11.06" y="404.24" class="st7" v:langID="2052"><v:paragraph v:horizAlign="1"/><v:tabList/>Two-Way <tspan
						class="st4" v:langID="1033">TLS </tspan><tspan class="st8">1</tspan><tspan class="st8">.</tspan><tspan
						class="st8">3 </tspan><tspan class="st4" v:langID="1033">Handshake</tspan></text>		</g>
		<g id="shape982-34" v:mID="982" v:groupContext="shape" transform="translate(484.125,-108.205)">
			<title>Sheet.982</title>
			<desc>X.509 Certificate …</desc>
			<v:textBlock v:margins="rect(4,4,4,4)"/>
			<v:textRect cx="56.25" cy="329.165" width="112.5" height="162.17"/>
			<rect x="0" y="248.08" width="112.5" height="162.17" class="st9"/>
			<text x="15.86" y="265.57" class="st7" v:langID="2052"><v:paragraph v:horizAlign="1"/><v:tabList/>X.509 Certificate<v:newlineChar/><v:newlineChar/><tspan
						x="48.25" dy="2.025em" class="st10">…</tspan><v:newlineChar/><v:newlineChar/><v:newlineChar/><v:newlineChar/><v:newlineChar/><v:newlineChar/><v:newlineChar/></text>		</g>
		<g id="shape983-38" v:mID="983" v:groupContext="shape" transform="translate(498.188,-233.08)">
			<title>Sheet.983</title>
			<desc>Version</desc>
			<v:textBlock v:margins="rect(4,4,4,4)"/>
			<v:textRect cx="42.1875" cy="403.5" width="84.38" height="13.5"/>
			<rect x="0" y="396.75" width="84.375" height="13.5" class="st9"/>
			<text x="29.84" y="405.9" class="st11" v:langID="2052"><v:paragraph v:horizAlign="1"/><v:tabList/>Version</text>		</g>
		<g id="shape984-41" v:mID="984" v:groupContext="shape" transform="translate(498.188,-204.955)">
			<title>Sheet.984</title>
			<desc>Subject</desc>
			<v:textBlock v:margins="rect(4,4,4,4)"/>
			<v:textRect cx="42.1875" cy="403.5" width="84.38" height="13.5"/>
			<rect x="0" y="396.75" width="84.375" height="13.5" class="st9"/>
			<text x="30.17" y="405.9" class="st11" v:langID="2052"><v:paragraph v:horizAlign="1"/><v:tabList/>Subject</text>		</g>
		<g id="shape985-44" v:mID="985" v:groupContext="shape" transform="translate(498.188,-186.955)">
			<title>Sheet.985</title>
			<desc>Subject Pubkey Info</desc>
			<v:textBlock v:margins="rect(4,4,4,4)"/>
			<v:textRect cx="42.1875" cy="403.5" width="84.38" height="13.5"/>
			<rect x="0" y="396.75" width="84.375" height="13.5" class="st9"/>
			<text x="10.03" y="405.9" class="st11" v:langID="2052"><v:paragraph v:horizAlign="1"/><v:tabList/>Subject Pubkey Info</text>		</g>
		<g id="shape986-47" v:mID="986" v:groupContext="shape" transform="translate(498.188,-139.705)">
			<title>Sheet.986</title>
			<desc>Extensions</desc>
			<v:textBlock v:margins="rect(4,4,4,4)"/>
			<v:textRect cx="42.1875" cy="388.875" width="84.38" height="42.75"/>
			<rect x="0" y="367.5" width="84.375" height="42.75" class="st9"/>
			<text x="24.81" y="376.88" class="st11" v:langID="2052"><v:paragraph v:horizAlign="1"/><v:tabList/>Extensions<v:newlineChar/><v:newlineChar/><v:newlineChar/></text>		</g>
		<g id="shape987-50" v:mID="987" v:groupContext="shape" transform="translate(498.188,-121.705)">
			<title>Sheet.987</title>
			<desc>Signature</desc>
			<v:textBlock v:margins="rect(4,4,4,4)"/>
			<v:textRect cx="42.1875" cy="403.5" width="84.38" height="13.5"/>
			<rect x="0" y="396.75" width="84.375" height="13.5" class="st9"/>
			<text x="26.71" y="405.9" class="st11" v:langID="2052"><v:paragraph v:horizAlign="1"/><v:tabList/>Signature</text>		</g>
		<g id="shape988-53" v:mID="988" v:groupContext="shape" transform="translate(503.25,-145.33)">
			<title>Sheet.988</title>
			<desc>Quote Pubkey Hash</desc>
			<v:textBlock v:margins="rect(4,4,4,4)"/>
			<v:textRect cx="36.8437" cy="399" width="73.69" height="22.5"/>
			<rect x="0" y="387.75" width="73.6875" height="22.5" class="st9"/>
			<text x="26.61" y="396.6" class="st11" v:langID="2052"><v:paragraph v:horizAlign="1"/><v:tabList/>Quote<v:lf/><tspan
						x="15.98" dy="1.2em" class="st4">Pubkey Hash</tspan></text>		</g>
		<g id="shape1001-57" v:mID="1001" v:groupContext="shape" transform="translate(350.653,-208.469)">
			<title>Sheet.1001</title>
			<desc>Encrypted Extensions</desc>
			<v:textBlock v:margins="rect(2,2,2,2)"/>
			<v:textRect cx="42.1875" cy="403.5" width="84.38" height="13.5"/>
			<path d="M0 396.75 L84.37 396.75 L84.37 410.25 L0 410.25 L0 396.75" class="st2"/>
			<text x="2" y="405.9" class="st3" v:langID="2052"><v:paragraph/><v:tabList/>Encrypted Extensions</text>		</g>
		<g id="shape1002-61" v:mID="1002" v:groupContext="shape" transform="translate(350.653,-188.219)">
			<title>Sheet.1002</title>
			<desc>Server Certificate</desc>
			<v:textBlock v:margins="rect(2,2,2,2)"/>
			<v:textRect cx="42.1875" cy="403.5" width="84.38" height="13.5"/>
			<path d="M0 396.75 L84.37 396.75 L84.37 410.25 L0 410.25 L0 396.75" class="st2"/>
			<text x="2" y="405.9" class="st3" v:langID="2052"><v:paragraph/><v:tabList/>Server Certificate</text>		</g>
		<g id="shape1003-65" v:mID="1003" v:groupContext="shape" transform="translate(351.135,-167.969)">
			<title>Sheet.1003</title>
			<desc>Server Certificate Verify</desc>
			<v:textBlock v:margins="rect(2,2,2,2)"/>
			<v:textRect cx="42.1875" cy="403.5" width="84.38" height="13.5"/>
			<path d="M0 396.75 L84.37 396.75 L84.37 410.25 L0 410.25 L0 396.75" class="st2"/>
			<text x="2" y="405.9" class="st3" v:langID="2052"><v:paragraph/><v:tabList/>Server Certificate Verify</text>		</g>
		<g id="shape1004-69" v:mID="1004" v:groupContext="shape" transform="translate(351.375,-147.156)">
			<title>Sheet.1004</title>
			<desc>Server Finished</desc>
			<v:textBlock v:margins="rect(2,2,2,2)"/>
			<v:textRect cx="42.1875" cy="403.5" width="84.38" height="13.5"/>
			<path d="M0 396.75 L84.37 396.75 L84.37 410.25 L0 410.25 L0 396.75" class="st2"/>
			<text x="2" y="405.9" class="st3" v:langID="2052"><v:paragraph/><v:tabList/>Server Finished</text>		</g>
		<g id="shape1007-73" v:mID="1007" v:groupContext="shape" transform="translate(173.82,-84.75)">
			<title>Sheet.1007</title>
			<desc>Change Cipher Spec</desc>
			<v:textBlock v:margins="rect(2,2,2,2)"/>
			<v:textRect cx="42.1875" cy="403.5" width="84.38" height="13.5"/>
			<path d="M0 396.75 L84.37 396.75 L84.37 410.25 L0 410.25 L0 396.75" class="st2"/>
			<text x="2" y="405.9" class="st3" v:langID="2052"><v:paragraph/><v:tabList/>Change Cipher Spec</text>		</g>
		<g id="shape1008-77" v:mID="1008" v:groupContext="shape" transform="translate(173.82,-62.25)">
			<title>Sheet.1008</title>
			<desc>Client Finished</desc>
			<v:textBlock v:margins="rect(2,2,2,2)"/>
			<v:textRect cx="42.1875" cy="403.5" width="84.38" height="13.5"/>
			<path d="M0 396.75 L84.37 396.75 L84.37 410.25 L0 410.25 L0 396.75" class="st2"/>
			<text x="2" y="405.9" class="st3" v:langID="2052"><v:paragraph/><v:tabList/>Client Finished</text>		</g>
		<g id="shape1010-81" v:mID="1010" v:groupContext="shape" transform="translate(173.82,-132)">
			<title>Sheet.1010</title>
			<desc>Client Certificate</desc>
			<v:textBlock v:margins="rect(2,2,2,2)"/>
			<v:textRect cx="42.1875" cy="403.5" width="84.38" height="13.5"/>
			<path d="M0 396.75 L84.37 396.75 L84.37 410.25 L0 410.25 L0 396.75" class="st2"/>
			<text x="2" y="405.9" class="st3" v:langID="2052"><v:paragraph/><v:tabList/>Client Certificate</text>		</g>
		<g id="shape1012-85" v:mID="1012" v:groupContext="shape" transform="translate(173.82,-109.5)">
			<title>Sheet.1012</title>
			<desc>Client Certificate Verify</desc>
			<v:textBlock v:margins="rect(2,2,2,2)"/>
			<v:textRect cx="42.1875" cy="403.5" width="84.38" height="13.5"/>
			<path d="M0 396.75 L84.37 396.75 L84.37 410.25 L0 410.25 L0 396.75" class="st2"/>
			<text x="2" y="405.9" class="st3" v:langID="2052"><v:paragraph/><v:tabList/>Client Certificate Verify</text>		</g>
		<g id="shape1014-89" v:mID="1014" v:groupContext="shape" transform="translate(350.653,-228.156)">
			<title>Sheet.1014</title>
			<desc>Change Cipher Spec</desc>
			<v:textBlock v:margins="rect(2,2,2,2)"/>
			<v:textRect cx="42.1875" cy="403.5" width="84.38" height="13.5"/>
			<path d="M0 396.75 L84.37 396.75 L84.37 410.25 L0 410.25 L0 396.75" class="st2"/>
			<text x="2" y="405.9" class="st3" v:langID="2052"><v:paragraph/><v:tabList/>Change Cipher Spec</text>		</g>
		<g id="shape1015-93" v:mID="1015" v:groupContext="shape" transform="translate(351.938,-27.375)">
			<title>Sheet.1015</title>
			<desc>Application Data</desc>
			<v:textBlock v:margins="rect(2,2,2,2)"/>
			<v:textRect cx="42.1875" cy="401.375" width="84.38" height="17.75"/>
			<path d="M0 392.5 L84.37 392.5 L84.37 410.25 L0 410.25 L0 392.5" class="st2"/>
			<text x="2" y="403.77" class="st3" v:langID="2052"><v:paragraph/><v:tabList/>Application Data</text>		</g>
		<g id="shape1016-97" v:mID="1016" v:groupContext="shape" transform="translate(172.5,-27.375)">
			<title>Sheet.1016</title>
			<desc>Application Data</desc>
			<v:textBlock v:margins="rect(2,2,2,2)"/>
			<v:textRect cx="42.1875" cy="401.375" width="84.38" height="17.75"/>
			<path d="M0 392.5 L84.37 392.5 L84.37 410.25 L0 410.25 L0 392.5" class="st2"/>
			<text x="2" y="403.77" class="st3" v:langID="2052"><v:paragraph/><v:tabList/>Application Data</text>		</g>
		<g id="shape1020-101" v:mID="1020" v:groupContext="shape" transform="translate(439.125,-196.04)">
			<title>Sheet.1020</title>
			<path d="M0 410.25 L33.46 410.25" class="st12"/>
		</g>
		<g id="shape1022-107" v:mID="1022" v:groupContext="shape" transform="translate(284.438,-315.375)">
			<title>Sheet.1022</title>
			<path d="M0 410.25 L35.15 410.25" class="st14"/>
		</g>
		<g id="shape1023-112" v:mID="1023" v:groupContext="shape" transform="translate(324.375,599.094) rotate(180)">
			<title>Sheet.1023</title>
			<path d="M0 410.25 L33.46 410.25" class="st14"/>
		</g>
		<g id="shape1024-117" v:mID="1024" v:groupContext="shape" transform="translate(283.875,-98.8125)">
			<title>Sheet.1024</title>
			<path d="M0 410.25 L35.15 410.25" class="st14"/>
		</g>
		<g id="shape1026-122" v:mID="1026" v:groupContext="shape" transform="translate(286.125,-313.125)">
			<title>Sheet.1026</title>
			<desc>1</desc>
			<v:textBlock v:margins="rect(4,4,4,4)"/>
			<v:textRect cx="15.75" cy="400.25" width="31.5" height="20"/>
			<rect x="0" y="390.25" width="31.5" height="20" class="st6"/>
			<text x="12.71" y="403.85" class="st7" v:langID="2052"><v:paragraph v:horizAlign="1"/><v:tabList/>1</text>		</g>
		<g id="shape1028-125" v:mID="1028" v:groupContext="shape" transform="translate(288.375,-219.156)">
			<title>Sheet.1028</title>
			<desc>2</desc>
			<v:textBlock v:margins="rect(4,4,4,4)"/>
			<v:textRect cx="15.75" cy="400.25" width="31.5" height="20"/>
			<rect x="0" y="390.25" width="31.5" height="20" class="st6"/>
			<text x="12.71" y="403.85" class="st7" v:langID="2052"><v:paragraph v:horizAlign="1"/><v:tabList/>2</text>		</g>
		<g id="shape1029-128" v:mID="1029" v:groupContext="shape" transform="translate(286.125,-96.5625)">
			<title>Sheet.1029</title>
			<desc>3</desc>
			<v:textBlock v:margins="rect(4,4,4,4)"/>
			<v:textRect cx="15.75" cy="400.25" width="31.5" height="20"/>
			<rect x="0" y="390.25" width="31.5" height="20" class="st6"/>
			<text x="12.71" y="403.85" class="st7" v:langID="2052"><v:paragraph v:horizAlign="1"/><v:tabList/>3</text>		</g>
		<g id="shape1031-131" v:mID="1031" v:groupContext="shape" transform="translate(326.625,784.25) rotate(180)">
			<title>Sheet.1031</title>
			<path d="M6.68 410.25 L7.04 410.25 L37.96 410.25" class="st15"/>
		</g>
		<g id="shape1032-139" v:mID="1032" v:groupContext="shape" transform="translate(286.125,-34.25)">
			<title>Sheet.1032</title>
			<desc>4</desc>
			<v:textBlock v:margins="rect(4,4,4,4)"/>
			<v:textRect cx="15.75" cy="401.375" width="31.5" height="17.75"/>
			<rect x="0" y="392.5" width="31.5" height="17.75" class="st6"/>
			<text x="12.71" y="404.98" class="st7" v:langID="2052"><v:paragraph v:horizAlign="1"/><v:tabList/>4</text>		</g>
		<g id="shape1033-142" v:mID="1033" v:groupContext="shape" transform="translate(9.375,-56.625)">
			<title>Sheet.1033</title>
			<desc>X.509 Certificate …</desc>
			<v:textBlock v:margins="rect(4,4,4,4)"/>
			<v:textRect cx="56.25" cy="329.165" width="112.5" height="162.17"/>
			<rect x="0" y="248.08" width="112.5" height="162.17" class="st9"/>
			<text x="15.86" y="265.57" class="st7" v:langID="2052"><v:paragraph v:horizAlign="1"/><v:tabList/>X.509 Certificate<v:newlineChar/><v:newlineChar/><tspan
						x="48.25" dy="2.025em" class="st10">…</tspan><v:newlineChar/><v:newlineChar/><v:newlineChar/><v:newlineChar/><v:newlineChar/><v:newlineChar/><v:newlineChar/></text>		</g>
		<g id="shape1034-146" v:mID="1034" v:groupContext="shape" transform="translate(23.4375,-181.5)">
			<title>Sheet.1034</title>
			<desc>Version</desc>
			<v:textBlock v:margins="rect(4,4,4,4)"/>
			<v:textRect cx="42.1875" cy="403.5" width="84.38" height="13.5"/>
			<rect x="0" y="396.75" width="84.375" height="13.5" class="st9"/>
			<text x="29.84" y="405.9" class="st11" v:langID="2052"><v:paragraph v:horizAlign="1"/><v:tabList/>Version</text>		</g>
		<g id="shape1035-149" v:mID="1035" v:groupContext="shape" transform="translate(23.4375,-153.375)">
			<title>Sheet.1035</title>
			<desc>Subject</desc>
			<v:textBlock v:margins="rect(4,4,4,4)"/>
			<v:textRect cx="42.1875" cy="403.5" width="84.38" height="13.5"/>
			<rect x="0" y="396.75" width="84.375" height="13.5" class="st9"/>
			<text x="30.17" y="405.9" class="st11" v:langID="2052"><v:paragraph v:horizAlign="1"/><v:tabList/>Subject</text>		</g>
		<g id="shape1036-152" v:mID="1036" v:groupContext="shape" transform="translate(23.4375,-135.375)">
			<title>Sheet.1036</title>
			<desc>Subject Pubkey Info</desc>
			<v:textBlock v:margins="rect(4,4,4,4)"/>
			<v:textRect cx="42.1875" cy="403.5" width="84.38" height="13.5"/>
			<rect x="0" y="396.75" width="84.375" height="13.5" class="st9"/>
			<text x="10.03" y="405.9" class="st11" v:langID="2052"><v:paragraph v:horizAlign="1"/><v:tabList/>Subject Pubkey Info</text>		</g>
		<g id="shape1037-155" v:mID="1037" v:groupContext="shape" transform="translate(23.4375,-88.125)">
			<title>Sheet.1037</title>
			<desc>Extensions</desc>
			<v:textBlock v:margins="rect(4,4,4,4)"/>
			<v:textRect cx="42.1875" cy="388.875" width="84.38" height="42.75"/>
			<rect x="0" y="367.5" width="84.375" height="42.75" class="st9"/>
			<text x="24.81" y="376.88" class="st11" v:langID="2052"><v:paragraph v:horizAlign="1"/><v:tabList/>Extensions<v:newlineChar/><v:newlineChar/><v:newlineChar/></text>		</g>
		<g id="shape1038-158" v:mID="1038" v:groupContext="shape" transform="translate(23.4375,-70.125)">
			<title>Sheet.1038</title>
			<desc>Signature</desc>
			<v:textBlock v:margins="rect(4,4,4,4)"/>
			<v:textRect cx="42.1875" cy="403.5" width="84.38" height="13.5"/>
			<rect x="0" y="396.75" width="84.375" height="13.5" class="st9"/>
			<text x="26.71" y="405.9" class="st11" v:langID="2052"><v:paragraph v:horizAlign="1"/><v:tabList/>Signature</text>		</g>
		<g id="shape1039-161" v:mID="1039" v:groupContext="shape" transform="translate(28.5,-93.75)">
			<title>Sheet.1039</title>
			<desc>Quote Pubkey Hash</desc>
			<v:textBlock v:margins="rect(4,4,4,4)"/>
			<v:textRect cx="36.8438" cy="399" width="73.69" height="22.5"/>
			<rect x="0" y="387.75" width="73.6875" height="22.5" class="st9"/>
			<text x="26.61" y="396.6" class="st11" v:langID="2052"><v:paragraph v:horizAlign="1"/><v:tabList/>Quote<v:lf/><tspan
						x="15.98" dy="1.2em" class="st4">Pubkey Hash</tspan></text>		</g>
		<g id="shape1041-165" v:mID="1041" v:groupContext="shape" transform="translate(166.875,680.625) rotate(180)">
			<title>Sheet.1041</title>
			<path d="M0 410.25 L33.46 410.25" class="st12"/>
		</g>
	</g>
</svg>
